<?xml version="1.0" encoding="utf-8"?>
<!-- Generator: Adobe Illustrator 16.0.4, SVG Export Plug-In . SVG Version: 6.00 Build 0)  -->
<!DOCTYPE svg PUBLIC "-//W3C//DTD SVG 1.1//EN" "http://www.w3.org/Graphics/SVG/1.1/DTD/svg11.dtd">
<svg version="1.1" id="Layer_1" xmlns="http://www.w3.org/2000/svg" xmlns:xlink="http://www.w3.org/1999/xlink" x="0px" y="0px"
	 width="1000px" height="1032px" viewBox="0 0 1000 1032" enable-background="new 0 0 1000 1032" xml:space="preserve">
<g>
	<ellipse fill="#42D05F" cx="323.212" cy="130.326" rx="26.085" ry="26.122"/>
	<polygon fill="#42D05F" points="323.57,85.116 317.295,96 329.847,96 	"/>
	<polygon fill="#42D05F" points="322.34,176.884 328.615,166 316.064,166 	"/>
	<polygon fill="#42D05F" points="288.188,123.96 277.172,130.484 288.175,136.526 	"/>
	<polygon fill="#42D05F" points="354.488,95.539 342.639,99.675 352.427,107.932 	"/>
	<polygon fill="#42D05F" points="358.57,123.405 358.557,135.974 369.432,129.703 	"/>
	<polygon fill="#42D05F" points="301.642,101.295 289.378,98.621 293.199,110.594 	"/>
	<polygon fill="#42D05F" points="343.958,161.664 355.787,165.861 353.502,153.503 	"/>
	<polygon fill="#42D05F" points="292.558,152.06 288.739,164.034 301.003,161.358 	"/>
	<path fill="#42D05F" d="M934.788,275.344c0.418-0.177,1.863-0.678,1.863-0.678c-1.347,0.071-5.923,1.427-8.787,5.46
		c-1.376,0.306-2.79,0.715-4.232,1.255l-0.283,1.016c2.265-0.958,4.516-1.516,6.654-1.813c2.218,4.463,6.749,6.345,8.078,6.621
		c0,0-1.355-0.713-1.739-0.953c-0.332-0.206-3.686-1.886-5.822-5.738c3.025-0.363,5.795-0.208,8.004,0.091
		c1.764,3.582,5.176,5.108,6.239,5.328c0,0-1.086-0.571-1.392-0.763c-0.263-0.164-3.055-1.517-4.405-4.502
		c2.516,0.375,4.224,0.911,4.603,0.994c1.104,0.238,4.778,1.312,4.778,1.312c-1.25-0.791-3.804-2.019-7.256-2.808
		c1.575-2.122,3.919-2.847,4.154-2.949c0.294-0.124,1.307-0.475,1.307-0.475c-0.932,0.049-3.713,0.667-5.699,3.369
		c-1.589-0.349-3.364-0.6-5.283-0.675c1.798-2.59,4.624-3.465,4.899-3.584c0.335-0.142,1.488-0.543,1.488-0.543
		c-1.089,0.058-4.426,0.799-6.706,4.116c-2.175-0.063-4.529,0.106-7.014,0.624C930.919,276.633,934.432,275.497,934.788,275.344z"/>
	<path fill="#42D05F" d="M941.039,272.225c10.535-0.65,21.098,8.446,21.098,8.446c-9.079-3.192-14.189,9.917-24.372,10.467
		c-9.202,0.498-15.87-6.364-15.87-6.364s1.577,14.251,16.162,13.687c10.196-0.394,22.974-17.856,35.941-13.3
		c0,0-15.264-21.515-30.843-19.237c-15.576,2.28-19.492,12.537-19.492,12.537S932.117,272.773,941.039,272.225z"/>
	<path fill="#42D05F" d="M914.021,265.953c0,0-0.899,1.241-1.189,1.586c-0.253,0.3-2.393,3.385-6.506,4.947
		c0.073-3.049,0.626-5.77,1.236-7.917c3.793-1.235,5.791-4.396,6.163-5.42c0,0-0.721,0.992-0.956,1.27
		c-0.197,0.238-1.935,2.808-5.081,3.721c0.731-2.441,1.508-4.056,1.643-4.42c0.396-1.062,1.984-4.547,1.984-4.547
		c-0.963,1.125-2.546,3.481-3.818,6.79c-1.869-1.866-2.251-4.294-2.316-4.543c-0.083-0.309-0.284-1.361-0.284-1.361
		c-0.086,0.927,0.128,3.774,2.514,6.132c-0.575,1.525-1.078,3.248-1.426,5.14c-2.303-2.153-2.758-5.078-2.839-5.37
		c-0.092-0.351-0.318-1.555-0.318-1.555c-0.104,1.089,0.147,4.502,3.102,7.238c-0.373,2.146-0.543,4.504-0.391,7.041
		c-2.989-3.148-3.609-6.792-3.708-7.167c-0.116-0.437-0.404-1.942-0.404-1.942c-0.121,1.344,0.562,6.074,4.139,9.494
		c0.104,1.406,0.306,2.865,0.631,4.372l0.963,0.427c-0.621-2.379-0.851-4.693-0.837-6.857
		C911.049,271.451,913.559,267.229,914.021,265.953z"/>
	<path fill="#42D05F" d="M903.311,278.988c0,0-4.406-9.197-3.667-18.115c0.866-10.534,11.367-19.697,11.367-19.697
		c-4.455,8.539,7.769,15.485,6.854,25.653c-0.828,9.193-8.568,14.819-8.568,14.819s14.312,0.481,15.845-14.055
		c1.073-10.163-14.353-25.332-7.987-37.529c0,0-23.454,12.04-23.437,27.805C893.736,273.635,903.311,278.988,903.311,278.988z"/>
	<path fill="#42D05F" d="M132.813,644.483l1.718,3.387c0.146,0.29,0.503,0.406,0.792,0.259l3.053-1.554
		c0.29-0.147,0.405-0.505,0.257-0.794l-2.087-4.112l-0.909-1.786c-0.025-0.052-0.064-0.09-0.101-0.131
		c-0.175-0.188-0.453-0.251-0.692-0.13l-3.051,1.554c-0.24,0.121-0.352,0.386-0.302,0.637c0.011,0.055,0.019,0.108,0.045,0.157
		L132.813,644.483z"/>
	<path fill="#42D05F" d="M206.904,787.08l-1.98-3.898c-0.146-0.289-0.504-0.406-0.795-0.258l-3.05,1.553
		c-0.289,0.148-0.405,0.503-0.258,0.795l1.771,3.488l1.225,2.41c0.024,0.049,0.062,0.083,0.097,0.121
		c0.175,0.193,0.455,0.261,0.699,0.139l3.049-1.553c0.243-0.126,0.354-0.393,0.301-0.646c-0.012-0.052-0.017-0.104-0.042-0.15
		L206.904,787.08z"/>
	<path fill="#42D05F" d="M753.846,245.572c-0.65,1.53,0.193,3.64,1.086,4.257c0.894,0.62,3.156,0.661,4.359-0.49
		c0.612,1.551,2.711,2.449,3.779,2.254c1.068-0.193,2.709-1.764,2.749-3.427c1.529,0.65,3.634-0.197,4.254-1.089
		c0.617-0.894,0.659-3.162-0.489-4.364c1.546-0.617,2.441-2.717,2.249-3.788c-0.193-1.068-1.763-2.712-3.423-2.753
		c0.65-1.531-0.195-3.64-1.089-4.259c-0.891-0.618-3.155-0.66-4.356,0.492c-0.612-1.551-2.711-2.449-3.782-2.254
		c-1.065,0.195-2.706,1.764-2.747,3.427c-1.53-0.651-3.636,0.197-4.253,1.089c-0.619,0.894-0.66,3.162,0.491,4.364
		c-1.551,0.616-2.446,2.716-2.253,3.787C750.616,243.889,752.185,245.532,753.846,245.572z"/>
	<path fill="#42D05F" d="M775.232,231.353c-0.522,1.226,0.145,2.911,0.86,3.407c0.714,0.496,2.533,0.527,3.494-0.402
		c0.489,1.243,2.157,1.968,3.015,1.811c0.859-0.155,2.177-1.418,2.201-2.752c1.222,0.524,2.909-0.145,3.403-0.86
		c0.495-0.717,0.527-2.542-0.402-3.5c1.241-0.492,1.966-2.163,1.81-3.022c-0.155-0.856-1.417-2.176-2.75-2.202
		c0.525-1.224-0.144-2.912-0.857-3.406c-0.718-0.497-2.536-0.528-3.494,0.403c-0.489-1.243-2.164-1.971-3.021-1.813
		c-0.853,0.156-2.172,1.418-2.197,2.753c-1.223-0.524-2.906,0.145-3.4,0.861c-0.498,0.716-0.529,2.538,0.399,3.499
		c-1.24,0.492-1.966,2.165-1.809,3.022C772.636,230.008,773.899,231.328,775.232,231.353z"/>
	<path fill="#42D05F" d="M775.46,204.37c-0.523,1.225,0.146,2.911,0.857,3.406c0.718,0.497,2.538,0.528,3.496-0.403
		c0.487,1.245,2.159,1.97,3.017,1.815s2.175-1.42,2.202-2.754c1.223,0.523,2.906-0.146,3.4-0.861
		c0.496-0.716,0.527-2.539-0.402-3.499c1.244-0.49,1.967-2.164,1.812-3.021s-1.416-2.178-2.752-2.202
		c0.523-1.226-0.144-2.911-0.859-3.407c-0.714-0.497-2.534-0.528-3.494,0.402c-0.489-1.245-2.159-1.97-3.017-1.813
		c-0.857,0.156-2.175,1.419-2.2,2.755c-1.223-0.524-2.906,0.145-3.402,0.858c-0.493,0.718-0.525,2.541,0.402,3.501
		c-1.241,0.489-1.967,2.163-1.81,3.021C772.865,203.024,774.126,204.346,775.46,204.37z"/>
	<path fill="#42D05F" d="M662.994,236.75c0.152,2.494,2.298,4.389,4.787,4.235l53.707-3.344l15.756,51.522
		c0.731,2.388,3.259,3.734,5.646,3.002c2.382-0.732,3.722-3.263,2.994-5.65l-6.428-21.014l6.365-9.206l-5.757-3.992l-3.221,4.656
		l-7.717-25.229c-0.323-1.054-0.992-1.903-1.847-2.462c-0.824-0.606-1.854-0.937-2.954-0.867l-57.104,3.554
		C664.731,232.111,662.837,234.257,662.994,236.75z"/>
	<path fill="#42D05F" d="M868.518,518.348l-30.502,19.623c-4.158,2.675-7.64,9.5-7.774,15.248l-0.552,23.36
		c-5.988-0.631-11.653-1.978-14.926-4.021c-4.092-2.559-5.034-11.668-9.078-11.365c-0.864,0.065-1.646,0.455-2.344,1.102
		c0.009-0.911,0.019-1.824,0.019-2.74c0-15.951-1.168-31.631-3.407-46.961c0.965,1.412,2.08,2.341,3.33,2.517
		c3.614,0.511,3.87-8.167,7.407-10.689c2.821-2.012,7.819-3.527,13.146-4.421l3.452,35.789c0.495,5.146,3.676,7.016,7.105,4.179
		l25.145-20.822c3.429-2.839,5.804-9.312,5.31-14.463l-5.844-60.588c-0.494-5.15-3.677-7.02-7.106-4.181l-25.144,20.823
		c-3.428,2.838-5.805,9.313-5.309,14.462l2.018,20.934c-5.418,0.08-10.625-0.51-13.77-1.984c-3.93-1.844-5.75-9.882-9.332-9.176
		c-2.267,0.448-3.568,3.343-4.076,7.173c-4.26-19.987-10.371-39.288-18.154-57.708c2.024,2.193,5.927,2.257,9.049,0.047
		l140.752-99.631c3.34-2.363,4.527-6.433,2.65-9.091l-21.566-30.552c-0.956-2.478-1.769-5.166-2.159-7.835
		c4.529-2.769,10.219-5.352,15.422-5.091c-3.888-1.971-10.264,1.105-15.489,4.592c-0.26-2.043-0.269-4.065,0.102-5.965
		c-1.147,1.637-1.32,3.948-0.914,6.515c-0.561,0.389-1.106,0.779-1.634,1.165l-15.854-22.465c-1.876-2.656-6.104-2.892-9.446-0.529
		l-140.748,99.632c-0.052,0.036-0.099,0.075-0.147,0.113c-10.953-14.444-23.103-27.93-36.293-40.313
		c4.467,0.534,9.074-1.356,11.812-5.317l20.719-29.956l-16.537-48.153l-49.467,2.374l-20.721,29.955
		c-1.847,2.671-2.503,5.804-2.112,8.789c-14.472-8.573-29.676-16.038-45.496-22.28l31.554-73.55l-3.947-2.053l-30.179,57.659
		c1.54-10.281,0.393-19.112,0.393-19.112c0.057,2.896,0.404,19.597-9.884,32.265c6.758-11.99-0.012-29.729,11.974-39.156
		c0.579-0.457,2.787-1.919,2.787-1.919c-10.302,5.093-11.655,16.328-15.439,26.988c0.945-3.979,1.625-9.427,2.409-17.602
		c1.274-1.58,2.607-3.339,4.004-5.332c0,0-2.173,1.761-3.791,3.068c0.116-1.263,0.235-2.581,0.361-3.968
		c0.062-0.686,1.378-8.095,1.378-8.095c-2.339,4.069-3.286,8.946-4.277,14.074c-2.218,1.7-4.316,3.193-6.282,4.554
		c1.176-4.789,1.513-9.716-0.579-15.421c0,0,0.626,2.472,0.749,3.159c1.032,5.726-0.399,10.028-2.576,13.916
		c-3.52,2.403-6.562,4.479-9.076,6.788c-0.05-2.79-0.359-5.779-0.705-9.128c1.558-4.171,3.919-8.041,8.95-10.944
		c0.606-0.349,2.896-1.464,2.896-1.464c-5.7,2.083-9.247,5.519-12.138,9.508c-0.229-2.382-0.444-4.948-0.579-7.742
		c3.271-4.069,6.381-7.941,7.975-12.357c0,0-4.801,5.79-5.283,6.279c-0.983,0.997-1.903,1.93-2.795,2.839
		c-0.047-2.083-0.103-4.882-0.103-4.882c-0.624,2.354-1.104,4.51-1.486,6.506c-5.768,5.911-9.491,9.963-11.918,13.266
		c5.696-9.805,13.436-18.1,10.668-29.294c0,0,0.312,2.633,0.337,3.37c0.458,12.868-12.212,19.34-19.06,28.801l0.35-4.581
		c5.012-10.236,13.072-16.771,14.798-18.174c0,0-7.515,4.854-14.38,12.704l6.951-90.969l-5.867-0.883l-14.779,95.78
		c-1.976-9.238-5.4-16.194-5.4-16.194c0.961,2.648,6.401,17.561,1.511,32.471c-0.079-0.011-0.159-0.023-0.24-0.036
		c1.571-13.166-9.553-27.235-1.524-39.633c0.402-0.621,2.019-2.719,2.019-2.719c-8.111,8.169-5.739,19.256-5.881,30.585
		c-0.391-4.077-1.508-9.461-3.416-17.479c0.698-1.909,1.392-4.007,2.064-6.345c0,0-1.483,2.37-2.594,4.134
		c-0.297-1.232-0.608-2.521-0.938-3.873c-0.166-0.669-1.313-8.105-1.313-8.105c-0.897,4.606-0.217,9.531,0.501,14.705
		c-1.551,2.328-3.05,4.417-4.473,6.343c-0.434-4.911-1.708-9.685-5.53-14.406c0,0,0.61,0.94,1.122,1.75
		c-4.816,3.68-7.183,8.007-8.763,12.67c-0.925-2.208-1.889-4.594-2.843-7.224c1.919-4.857,3.745-9.478,3.962-14.167
		c0,0-2.873,6.952-3.19,7.564c-0.642,1.235-1.249,2.412-1.829,3.54c-0.661-1.977-1.542-4.631-1.542-4.631
		c0.103,2.431,0.28,4.633,0.505,6.652c-3.751,7.338-6.109,12.304-7.452,16.175c2.542-11.041,7.468-21.251,1.517-31.112
		c0,0,1.077,2.332,1.318,3.03c4.982,14.269-9.923,25.965-10.939,38.965c-0.025,0-0.05,0-0.076,0c-1.666-16,7.477-29.642,9.07-32.032
		c0,0-8.265,9.911-12.274,22.426l-8.148-132.896l-7.414-0.074l-1.673,107.077c-3.729,4.146-5.302,8.54-6.122,13.121
		c-1.244-2.045-2.553-4.259-3.889-6.716c1.174-5.089,2.291-9.932,1.806-14.601c0,0-1.805,7.305-2.026,7.957
		c-0.45,1.317-0.875,2.571-1.281,3.773c-0.948-1.856-2.215-4.349-2.215-4.349c0.464,2.388,0.968,4.538,1.49,6.501
		c-2.613,7.819-4.206,13.084-4.956,17.113c0.867-11.299,4.216-22.132-3.138-30.993c0,0,1.424,2.235,1.769,2.887
		c7.121,13.496-6.271,26.944-4.963,40.653c-4.258-15.766,2.843-30.882,4.071-33.507c0,0-12.182,19.996-8.822,37.887
		c-44.375,7.111-85.712,23.327-122.042,46.683c-2.315-1.413-5.004-2.57-8.107-3.909c-2.303-2.718-4.085-5.878-4.147-10.534
		c-0.008-0.559,0.107-2.596,0.107-2.596c-0.772,4.802,0.243,8.621,1.897,12.201c-1.752-0.768-3.625-1.618-5.625-2.615
		c-1.563-3.874-3.053-7.562-5.511-10.398c0,0,2.166,5.617,2.318,6.146c0.312,1.076,0.605,2.084,0.892,3.062
		c-1.472-0.78-3.446-1.832-3.446-1.832c1.399,1.351,2.716,2.53,3.958,3.576c1.87,6.32,3.239,10.499,4.593,13.482
		c-4.608-7.802-7.382-16.434-16.258-18.86c0,0,1.958,0.811,2.48,1.08c8.156,4.186,8.709,13.68,11.512,21.699
		c-0.064,0.047-0.13,0.093-0.194,0.14c-1.38-1.068-3.108-2.415-4.066-3.187c-3.288-6.235-4.305-12.105-4.559-13.56
		c0,0,0.321,5.083,2.099,11.39c-1.316-1.328-2.699-3.093-4.14-5.855c-2.149-4.124-3.551-7.925-4.462-10.669
		c-0.588-1.774-1.115-3.394-1.528-5.068c5.797,1.053,11.915-1.407,15.259-6.7c3.747-5.93,2.801-13.488-1.851-18.327
		c4.316-7.578,1.958-17.288-5.481-22.002c-3.025-1.917-6.437-2.715-9.758-2.509c-1.408-2.554-3.456-4.799-6.092-6.467
		c-8.19-5.19-18.98-2.885-24.371,5.1c-5.686-0.878-11.61,1.594-14.881,6.773c-0.39,0.617-0.71,1.257-1,1.903
		c-4.48,2.067-7.983,6.12-9.148,11.312c-0.786,3.499-0.389,6.986,0.921,10.048c-1.93,2.185-3.353,4.873-4.036,7.919
		c-2.126,9.47,3.668,18.871,12.992,21.271c1.085,5.656,5.401,10.412,11.371,11.756c7.559,1.703,15.063-2.677,17.427-9.9
		c0.29,0.114,0.557,0.227,0.786,0.329c6.392,2.869,13.39,6.977,16.716,10.679c1.989,2.213,3.369,4.894,4.393,7.094
		c-9.511-4.85-20.055-5.628-20.055-5.628c2.222,0.411,14.769,2.72,23.048,12.225c-0.047,0.036-0.095,0.074-0.141,0.111
		c-8.42-6.485-22.675-4.484-27.964-15.085c-0.265-0.527-1.054-2.498-1.054-2.498c2.332,8.916,10.925,11.782,18.667,16.476
		c-2.965-1.386-7.124-2.801-13.418-4.738c-1.031-1.256-2.193-2.584-3.529-4c0,0,1.029,1.987,1.794,3.469
		c-0.975-0.296-1.978-0.601-3.048-0.922c-0.527-0.16-6.113-2.386-6.113-2.386c2.807,2.49,6.473,4.019,10.327,5.623
		c0.974,2.015,1.803,3.897,2.552,5.661c-3.558-1.693-7.36-2.75-12.161-2.027c0,0,2.033-0.093,2.591-0.081
		c4.648,0.111,7.786,1.928,10.477,4.264c0.953,2.28,1.812,4.34,2.745,6.192c-3.328-2.197-7.267-3.187-12.2-4.435
		c-2.705-2.32-4.964-5.159-5.762-9.744c-0.097-0.552-0.306-2.579-0.306-2.579c-0.002,4.861,1.604,8.472,3.804,11.744
		c-1.852-0.48-3.835-1.023-5.968-1.69c-2.156-3.579-4.209-6.983-7.084-9.394c0,0,3.025,5.203,3.261,5.701
		c0.477,1.012,0.926,1.962,1.362,2.883c-1.576-0.537-3.69-1.261-3.69-1.261c1.595,1.112,3.079,2.067,4.474,2.902
		c2.844,5.942,4.855,9.851,6.663,12.581c-5.781-6.971-9.885-15.052-19.033-16.042c0,0,2.062,0.489,2.622,0.673
		c11.564,3.771,11.392,18.886,19.7,26.052c-0.006,0.007-0.012,0.013-0.019,0.02c-11.158-6.692-15.468-19.283-16.221-21.47
		c0,0,2.555,11.314,9.426,20.233c-9.738-3.151-19.576-2.57-19.576-2.57c2.119,0.105,13.491,0.662,22.707,7.629
		c-0.164,0.173-0.326,0.348-0.49,0.521c-9.101-3.772-21.443-1.125-27.593-10.203c-0.332-0.489-1.373-2.337-1.373-2.337
		c3.484,8.521,12.366,10.229,20.652,13.849c-3.12-0.976-7.425-1.826-13.899-2.909c-1.188-1.109-2.517-2.271-4.026-3.498
		c0,0,1.282,1.833,2.235,3.201c-1.001-0.164-2.045-0.333-3.145-0.511c-0.542-0.087-6.372-1.555-6.372-1.555
		c3.11,2.096,6.945,3.126,10.978,4.207c1.23,1.866,2.303,3.626,3.276,5.274c-2.78-0.896-5.654-1.421-8.856-1.081
		c-0.521-0.478-1.057-0.991-1.61-1.55c-4.537-4.594-7.947-9.066-10.277-12.336c-1.503-2.112-2.871-4.039-4.103-6.093
		c8.131-0.974,15.248-6.751,17.526-15.147c2.553-9.404-1.786-19.049-9.935-23.568c2.638-11.825-4.46-23.75-16.255-26.96
		c-4.799-1.307-9.654-0.97-13.978,0.66c-2.909-2.812-6.547-4.954-10.727-6.091c-12.992-3.535-26.371,3.938-30.269,16.747
		c-7.902,1.159-14.761,6.867-16.989,15.078c-0.267,0.986-0.455,1.974-0.575,2.959c-5.087,4.576-8.072,11.382-7.501,18.737
		c0.385,4.966,2.334,9.431,5.321,12.96c-1.668,3.69-2.46,7.841-2.124,12.164c1.042,13.443,12.569,23.547,25.926,22.917
		c3.748,7.064,11.421,11.612,19.894,10.953c10.729-0.833,18.906-9.718,19.095-20.274c0.431,0.035,0.829,0.073,1.174,0.115
		c9.655,1.194,20.621,3.782,26.549,7.334c4.642,2.782,8.236,7.07,10.634,9.768c0.782,0.88,2.278,2.507,3.712,4.057
		c-0.489,0.648-0.978,1.298-1.462,1.95c-3.488-1.513-7.394-1.909-12.235-2.406c-3.011-1.903-5.657-4.383-7.108-8.807
		c-0.175-0.531-0.674-2.508-0.674-2.508c0.7,4.813,2.812,8.152,5.461,11.071c-1.902-0.208-3.943-0.457-6.15-0.807
		c-2.65-3.227-5.173-6.299-8.365-8.27c0,0,3.744,4.71,4.05,5.17c0.618,0.932,1.199,1.807,1.765,2.654
		c-1.637-0.303-3.834-0.715-3.834-0.715c1.739,0.871,3.347,1.6,4.845,2.224c3.673,5.469,6.229,9.044,8.413,11.485
		c-6.729-6.061-11.957-13.463-21.154-13.115c0,0,2.112,0.185,2.693,0.285c10.703,1.835,13.452,13.979,20.507,20.751
		c-0.142,0.219-0.284,0.437-0.426,0.656c-9.92-5.558-15.026-15.489-15.989-17.356c0,0,4.792,12.487,14.097,20.337
		c-8.623,13.737-16.235,28.173-22.736,43.204c-0.758-0.562-1.64-0.983-2.62-1.202L27.341,395.497
		c-3.744-0.836-7.458,1.525-8.293,5.273L0.291,484.95c-0.835,3.75,1.523,7.469,5.267,8.305l157.425,35.176
		c-0.983,10.244-1.492,20.625-1.492,31.124c0,0.768,0.009,1.533,0.015,2.299c-3.054-0.523-4.189,6.976-7.55,8.834
		c-2.729,1.51-7.351,2.354-12.206,2.612l0.559-32.354c0.08-4.655-2.574-6.654-5.93-4.464l-24.602,16.05
		c-3.356,2.19-6.141,7.734-6.223,12.392l-0.946,54.774c-0.08,4.65,2.573,6.65,5.93,4.462l24.605-16.05
		c3.354-2.188,6.139-7.734,6.219-12.389l0.327-18.925c4.854,0.48,9.45,1.539,12.112,3.183c3.325,2.047,4.133,9.419,7.41,9.152
		c0.567-0.045,1.087-0.273,1.562-0.638c2.401,26.949,8.126,52.939,16.76,77.559c-6.376-6.659-16.348-8.946-25.15-5.315
		l-9.937-19.616c0,0-3.029-5.207-7.026-1.539c-0.215,0.197-0.332,0.41-0.414,0.642l4.17,8.21c0.212,0.418,0.047,0.925-0.369,1.136
		l-4.357,2.22c-0.414,0.211-0.921,0.047-1.133-0.37l-3.308-6.514c-5.368,3.07-15.536,14.281-16.23,22.467
		c-0.495,5.82,0.199,23.831,0.199,23.831s-19.738,30.398-15,42.64c6.943,17.948,33.366,56.129,43.864,63.229
		c7.355,4.977,24.968,3.71,37.778,5.398c0,0,6.599-5.349,13.316-9.771c1.456,7.928,7.789,13.567,23.978,5.261
		c29.1-14.934,28.752,13.523,19.199,24.577c-1.248-1.251-2.417-2.328-3.016-2.7c-1.644-1.028-2.783,0.327-3.018,0.646
		c-0.647-0.2-1.27-0.292-1.843-0.247c-5.368,0.399-16.021,11.915-16.021,11.915l2.169,2.245l-6.569,6.365
		c-0.535,0.521-0.55,1.376-0.031,1.912c0.518,0.536,1.372,0.552,1.909,0.031l6.568-6.365l7.295,7.548l-6.282,6.087
		c-0.534,0.519-0.55,1.376-0.032,1.91c0.519,0.536,1.375,0.548,1.907,0.031l6.283-6.087l2.395,2.479c0,0,12.052-9.97,12.42-15.645
		c0.041-0.633-0.079-1.342-0.32-2.087c0.443-0.261,1.789-1.241,0.677-2.974c-0.436-0.678-1.544-1.966-2.796-3.309
		c11.083-14.061,7.712-43.059-19.71-28.34c-15.978,8.58-22.212,3.371-23.63-4.242c1.458-0.922,2.894-1.775,4.248-2.5l-3.371-6.639
		c-0.211-0.416-0.046-0.926,0.37-1.137l4.356-2.217c0.415-0.211,0.924-0.045,1.133,0.368l3.791,7.465
		c1.119,0.126,2.56,0.516,3.331,0.271c1.56-0.496,5.1-4.114,5.1-4.114l-8.033-15.854c8.647-5.646,12.395-16.436,9.227-26.181
		c29.509,43.059,69.215,78.563,115.636,103.012l-4.178,13.033c0,0-15.683-4.518-18.15-3.03c-5.807,3.506-23.939,18.05-23.939,18.05
		s9.168,1.49,11.026,2.065c5.048,1.558,23.756,10.081,23.756,10.081l-3.948,15.202l28.462-21.701l-10.818-32.551
		c44.033,22.756,94,35.607,146.963,35.607c15.574,0,30.889-1.115,45.87-3.264c-4.785,3.226-10.481,8.3-13.604,14.259
		c-9.812-7.693-23.627-10.535-19.978-7.449c3.101,2.619,1.337,3.91,1.337,3.91s-17.734-3.613-14.444,0.37
		c1.658,2.004-0.03,3.885-0.03,3.885s-15.518-1.14-11.627,0.671c2.182,1.018,1.757,3.69,1.757,3.69s-10.461-0.417-8.488,1.76
		c2.409,2.659,0.341,2.469,0.341,2.469s-10.896-0.242-8.398,1.869c2.088,1.765,1.703,6.429,1.703,6.429s-4.035,3.472-9.074,4.571
		c-6.481,1.417,8.945,8.058,12.977,6.94c1.09-0.304-1.612,2.906-2.614,4.621c-1.208,2.073,11.454,2.215,11.454,2.215
		s-0.131,1.376-1.111,3.847c-1.367,3.441,10.992-1.925,10.992-1.925s0.363,2.621-0.46,4.35c-2.704,5.667,11.061,0.648,11.061,0.648
		s1.428,1.508-0.067,5.274c-0.621,1.562,3.793-0.238,7.655-2.05c-0.656,3.818-1.548,11.467,2.457,8.873
		c1.601-1.042,4.245-1.02,4.245-1.02s-3.722,12.964-0.489,11.164c2.317-1.293,3.662-1.599,3.662-1.599s1.772,12.556,3.667,11.09
		c1.571-1.216,4.403-4.313,4.246-3.191c-0.59,4.147,7.975,18.61,8.54,11.994c0.442-5.148,3.362-9.606,3.362-9.606
		s4.567-0.979,6.583,0.867c2.413,2.208,0.77-8.581,0.77-8.581s-0.453-2.028,2.487,0.021c2.41,1.679,0.653-8.654,0.653-8.654
		s2.592-0.768,3.876,1.268c2.298,3.632-0.833-11.631-0.833-11.631s1.646-1.916,3.845-0.529c3.008,1.895,1.165-5.645-0.273-10.523
		c4.239,0.955,9.197,1.831,8.23,0.403c-2.281-3.351-1.213-5.135-1.213-5.135s14.526,1.907,10.657-3.039
		c-1.177-1.504-1.392-4.144-1.392-4.144s13.224,2.548,11.146-0.512c-1.492-2.197-1.919-3.51-1.919-3.51s12.328-2.894,10.699-4.655
		c-1.349-1.459-4.685-4.004-3.556-3.943c4.18,0.213,17.797-9.629,11.164-9.6c-5.162,0.024-9.853-2.489-9.853-2.489
		s-1.385-4.469,0.269-6.643c1.98-2.604-8.603,0.002-8.603,0.002s-1.978,0.633-0.204-2.482c1.454-2.557-8.668,0.125-8.668,0.125
		s-0.992-2.514,0.918-3.979c3.405-2.617-11.494,1.874-11.494,1.874s-2.058-1.471-0.875-3.786c2.348-4.604-14.178,2.78-14.178,2.78
		s-1.352-0.599-0.458-2.617c33.054-5.47,64.399-15.998,93.225-30.762c16.373,13.911,57.274,49.642,73.433,72.737
		C713.464,935.269,729.357,1032,729.357,1032s-0.131-67.655,21.874-85.525c24.338-19.767,59.793-5.236,59.793-5.236
		s-67.016-40.581-75.908-54.209c-15.574-23.867-34.971-84.022-34.971-84.022s14.108,70.623,4.009,78.335
		c-8.762,6.69-55.891-23.374-74.829-35.97c28.332-14.633,54.212-33.365,76.85-55.419c0.438,1.091,1.1,2.11,1.988,2.983
		l48.576,51.182c3.47,3.413,9.047,3.359,12.454-0.114l33.938-34.621c3.407-3.479,3.354-9.061-0.116-12.477l-52.001-47.683
		c-2.123-2.087-5.039-2.872-7.762-2.372c31.907-44.482,52.753-97.457,58.496-154.892c0.847,1.501,1.899,2.531,3.16,2.87
		c3.917,1.044,5.351-8.495,9.591-10.807c3.382-1.843,9.095-2.848,15.087-3.126l-0.942,39.933c-0.135,5.748,3.129,8.234,7.285,5.559
		l30.502-19.62c4.158-2.676,7.638-9.503,7.776-15.249l1.594-67.612C875.936,518.16,872.677,515.672,868.518,518.348z
		 M830.001,495.72l-0.749-7.76l1.122-3.097l1.093-0.904l1.1,11.423l0.204,2.101l-1.091,0.903l-1.51-0.914L830.001,495.72z
		 M852.773,483.716l2.895-2.398l1.305,13.525l-2.894,2.396L852.773,483.716z M853.688,497.563l-1.055,0.873l-1.511-0.916
		l-0.918-9.513l1.122-3.094l1.056-0.875L853.688,497.563z M852.521,481.099l-1.304-13.521l2.896-2.398l1.304,13.523L852.521,481.099
		z M852.131,481.422l-1.055,0.875l-1.511-0.916l-0.915-9.511l1.122-3.096l1.055-0.874L852.131,481.422z M848.727,489.234l0.918,9.51
		l-0.671,1.856l-0.449,1.238l-0.651,0.539l-0.305,0.252l-0.041-0.416l-1.207-12.516l-0.059-0.591l0.956-0.792l0.539,0.33
		l0.059,0.035L848.727,489.234z M843.82,500.553l-0.826-8.556l-0.016-0.172l2.893-2.397l0.054,0.552l1.158,12.024l0.095,0.947
		l-2.896,2.396L843.82,500.553z M843.892,505.672l-1.025,0.849l-1.509-0.914l-0.581-6.033l-0.337-3.478l1.123-3.096l0.516-0.429
		l0.508-0.421l0.011,0.101l0.783,8.122L843.892,505.672z M846.967,485.698l-0.956,0.792l-1.304-13.524l0.956-0.792l1.508,0.92
		l0.918,9.513L846.967,485.698z M845.62,486.812l-2.896,2.397l-1.302-13.521l2.894-2.398L845.62,486.812z M842.334,489.534
		l-1.023,0.848l-1.511-0.916l-0.918-9.508l1.125-3.099l1.025-0.849L842.334,489.534z M839.096,497.237l0.202,2.104l0.714,7.407
		l-1.12,3.093l-0.889,0.739l-1.104-11.444l-0.202-2.079l0.894-0.738L839.096,497.237z M837.612,510.902l-2.896,2.396l-1.304-13.523
		l0.846-0.701l2.047-1.695l0.168,1.733L837.612,510.902z M837.336,493.701l-0.891,0.737l-1.305-13.523l0.892-0.736l1.508,0.919
		l0.916,9.511L837.336,493.701z M836.05,494.729l0.005,0.032l-2.896,2.397l-0.175-1.842l-1.127-11.682l2.893-2.397L836.05,494.729z
		 M830.81,504.099l1.122-3.096l1.091-0.903l1.304,13.522l-1.091,0.904l-1.508-0.915L830.81,504.099z M834.791,530.665l-1.506-0.916
		l-0.921-9.511l1.122-3.099l1.091-0.903l1.307,13.523L834.791,530.665z M836.274,529.438l-1.307-13.524l2.896-2.396l1.302,13.523
		L836.274,529.438z M840.449,525.979l-0.892,0.739l-1.304-13.524l0.889-0.737l1.509,0.92l0.915,9.512L840.449,525.979z
		 M844.424,522.659l-1.511-0.913l-0.918-9.513l1.125-3.095l1.023-0.849l1.304,13.521L844.424,522.659z M845.838,521.487
		l-1.304-13.522l2.895-2.396l1.302,13.523L845.838,521.487z M850.08,517.977l-0.959,0.791l-1.302-13.522l0.956-0.792l1.511,0.919
		l0.916,9.512L850.08,517.977z M854.189,514.576l-1.511-0.915l-0.916-9.511l1.122-3.098l1.056-0.874l1.304,13.524L854.189,514.576z
		 M855.635,513.378l-1.304-13.524l2.893-2.396l1.304,13.524L855.635,513.378z M860.965,506.796l-1.12,3.095l-0.927,0.768
		l-1.304-13.524l0.927-0.766l1.509,0.918L860.965,506.796z M859.407,490.658l-1.117,3.095l-0.927,0.767l-1.305-13.525l0.925-0.767
		l1.509,0.919L859.407,490.658z M857.854,474.521l-1.122,3.093l-0.925,0.767l-1.307-13.523l0.927-0.767l1.509,0.92L857.854,474.521z
		 M853.873,447.951l1.508,0.92l0.916,9.512l-1.12,3.089l-0.927,0.768l-1.304-13.521L853.873,447.951z M852.558,449.041l1.302,13.521
		l-2.894,2.397l-1.304-13.521L852.558,449.041z M848.215,452.635l1.055-0.873l1.304,13.521l-1.057,0.873l-1.509-0.911l-0.915-9.515
		L848.215,452.635z M844.107,456.036l1.508,0.92l0.916,9.512l-1.122,3.089l-0.956,0.792l-1.302-13.521L844.107,456.036z
		 M842.761,457.151l1.304,13.521l-2.896,2.396l-1.304-13.521L842.761,457.151z M838.451,460.72l1.023-0.847l1.305,13.521
		l-1.026,0.849l-1.508-0.914l-0.916-9.51L838.451,460.72z M834.475,464.04l1.508,0.92l0.918,9.511l-1.12,3.09l-0.891,0.737
		l-1.304-13.522L834.475,464.04z M833.195,465.1l1.302,13.524l-2.894,2.397l-1.304-13.522L833.195,465.1z M828.818,468.726
		l1.091-0.904l1.307,13.522l-1.094,0.903l-1.508-0.915l-0.918-9.512L828.818,468.726z M271.183,282.403
		c-1.823,0.31-7.534-1.74-12.056-3.029c0.069-0.807,0.071-1.607,0.011-2.396c2.64-0.979,5.256-2.401,7.709-4.275
		c1.292-0.986,2.476-2.05,3.547-3.171c0.441,0.355,0.896,0.697,1.386,1.007c0.393,0.249,0.794,0.469,1.198,0.676
		c-0.024,0.472-0.033,0.928-0.024,1.364C273.062,277.443,274.346,281.868,271.183,282.403z M200.777,339.169
		c-2.296,1.157-10.715,0.771-17.24,0.911c-0.238-1.099-0.562-2.163-0.963-3.184c3.102-2.378,5.993-5.336,8.484-8.828
		c1.312-1.837,2.448-3.731,3.413-5.655c0.729,0.292,1.48,0.549,2.256,0.76c0.623,0.169,1.245,0.304,1.868,0.414
		c0.159,0.633,0.333,1.24,0.524,1.813C201.245,331.814,204.757,337.165,200.777,339.169z M113.078,427.492l20.622,4.606
		l-2.929,13.144l-20.62-4.61L113.078,427.492z M128.942,453.455l-2.928,13.14l-20.624-4.606l2.929-13.143L128.942,453.455z
		 M86.013,421.442l20.621,4.61l-2.929,13.14l-20.62-4.606L86.013,421.442z M58.948,415.396l20.621,4.609l-2.928,13.141
		l-20.622-4.608L58.948,415.396z M74.811,441.359L71.883,454.5l-20.622-4.608l2.928-13.142L74.811,441.359z M31.882,409.35
		l20.622,4.607l-2.928,13.142l-20.622-4.608L31.882,409.35z M27.123,430.704l20.623,4.607l-2.927,13.142l-20.624-4.607
		L27.123,430.704z M35.46,490.452l-20.622-4.608l2.928-13.141l20.622,4.609L35.46,490.452z M19.438,465.201l2.929-13.142
		l20.621,4.607l-2.928,13.143L19.438,465.201z M62.524,496.499l-20.62-4.606l2.928-13.143l20.621,4.608L62.524,496.499z
		 M46.503,471.248l2.928-13.141l20.622,4.608l-2.927,13.14L46.503,471.248z M89.59,502.548l-20.623-4.609l2.93-13.141l20.621,4.608
		L89.59,502.548z M94.191,481.904l-20.624-4.607l2.929-13.142l20.623,4.607L94.191,481.904z M78.326,455.941l2.928-13.142
		l20.622,4.609l-2.927,13.141L78.326,455.941z M100.633,483.343l2.928-13.141l20.623,4.608l-2.93,13.141L100.633,483.343z
		 M144.555,514.829l-20.623-4.609l2.928-13.141l20.623,4.608L144.555,514.829z M149.154,494.185l-20.622-4.609l2.927-13.14
		l20.622,4.606L149.154,494.185z M153.91,472.831l-20.62-4.61l2.929-13.143l20.622,4.61L153.91,472.831z M158.671,451.473
		l-20.623-4.605l2.928-13.142l20.623,4.608L158.671,451.473z M130.794,547.554l2.834-1.847l-0.212,12.225l-2.833,1.846
		L130.794,547.554z M133.375,560.296l-0.212,12.228l-0.827,0.538l-2.004,1.307l0.026-1.566l0.185-10.659L133.375,560.296z
		 M128.225,551.021l1.316-2.65l0.872-0.568l-0.212,12.224l-0.871,0.567l-1.254-0.974L128.225,551.021z M127.857,572.308l0.115-6.697
		l1.316-2.65l0.871-0.568l-0.179,10.347l-0.032,1.881l-0.872,0.568l-1.254-0.977L127.857,572.308z M121.431,553.684l2.832-1.848
		l-0.211,12.226l-2.833,1.85L121.431,553.684z M121.178,568.276l2.833-1.849l-0.075,4.336l-0.133,7.734l-0.003,0.154l-2.833,1.848
		l0.009-0.498l0.188-10.872L121.178,568.276z M118.796,557.193l1.317-2.65l0.936-0.61l-0.211,12.226l-0.937,0.61l-1.254-0.975
		L118.796,557.193z M118.545,571.787l0.79-1.594l0.526-1.06l0.637-0.415l0.299-0.195l-0.006,0.377l-0.196,11.316l-0.01,0.532
		l-0.936,0.61l-0.446-0.348l-0.049-0.036l-0.76-0.593L118.545,571.787z M111.847,559.935l2.833-1.848l-0.211,12.228l-2.833,1.848
		L111.847,559.935z M114.428,572.681l-0.211,12.223l-2.833,1.85l0.212-12.224L114.428,572.681z M109.242,563.427l1.317-2.651
		l0.907-0.59l-0.211,12.226l-0.908,0.59l-1.255-0.974L109.242,563.427z M108.989,578.018l1.319-2.648l0.905-0.593L111.003,587
		l-0.908,0.592l-1.252-0.974L108.989,578.018z M110.498,616.182l-0.908,0.59l-1.255-0.974l0.149-8.601l1.316-2.648l0.908-0.59
		L110.498,616.182z M109.844,602.184l-1.255-0.977l0.147-8.601l1.318-2.648l0.906-0.593l-0.211,12.228L109.844,602.184z
		 M113.713,614.085l-2.833,1.848l0.211-12.224l2.833-1.85L113.713,614.085z M111.131,601.342l0.212-12.224l2.833-1.85l-0.211,12.224
		L111.131,601.342z M116.445,610.508l-1.318,2.655l-1.033,0.673l0.211-12.223l1.033-0.676l1.256,0.972L116.445,610.508z
		 M116.698,595.914l-1.32,2.658l-1.032,0.673l0.211-12.226l1.034-0.676l1.254,0.975L116.698,595.914z M116.949,581.326l-1.317,2.654
		l-1.034,0.676l0.212-12.225l1.032-0.674l1.256,0.972L116.949,581.326z M117.202,566.737l-1.317,2.655l-1.035,0.673l0.211-12.228
		l1.032-0.674l1.259,0.975L117.202,566.737z M120.082,609.931l-0.938,0.61l-1.254-0.977l0.147-8.6l1.318-2.648l0.937-0.611
		L120.082,609.931z M119.396,595.95l-1.252-0.979l0.148-8.599l1.318-2.65l0.935-0.608l-0.212,12.226L119.396,595.95z
		 M123.296,607.835l-2.833,1.845l0.211-12.226l2.833-1.847L123.296,607.835z M120.715,595.089l0.211-12.224l2.833-1.847
		l-0.212,12.226L120.715,595.089z M125.999,604.275l-1.318,2.654l-1.005,0.656l0.212-12.229l1.004-0.655l1.258,0.972
		L125.999,604.275z M126.253,589.684l-1.319,2.655l-1.005,0.653l0.212-12.223l1.004-0.656l1.256,0.975L126.253,589.684z
		 M126.558,571.951l-0.054,3.145l-1.319,2.652l-0.595,0.33L124,578.403v-0.092l0.219-7.342l0.129-4.794l1.026-0.65l1.267,0.969
		L126.558,571.951z M126.758,560.504l-1.32,2.653l-1.004,0.655l0.211-12.228l1.002-0.651l1.259,0.97L126.758,560.504z
		 M129.445,603.802l-0.871,0.567l-1.256-0.977l0.148-8.601l1.318-2.648l0.871-0.569L129.445,603.802z M128.827,589.778l-1.256-0.979
		l0.149-8.599l1.316-2.648l0.872-0.567l-0.213,12.223L128.827,589.778z M132.659,601.703l-2.831,1.85l0.211-12.23l2.831-1.847
		L132.659,601.703z M129.934,588.961L130,576.766v-0.032l2.976-1.845l0.114,1.663l-0.184,10.56L129.934,588.961z M135.427,598.101
		l-1.317,2.653l-1.067,0.697l0.211-12.225l1.067-0.696l1.257,0.972L135.427,598.101z M135.801,576.496l-0.122,7.016l-1.317,2.653
		l-1.066,0.695l0.178-10.324l0.033-1.898l1.065-0.696l1.256,0.97L135.801,576.496z M135.932,568.923l-1.319,2.653l-1.066,0.695
		l0.211-12.225l1.068-0.696l1.256,0.972L135.932,568.923z M136.185,554.332l-1.318,2.653l-1.069,0.695l0.211-12.223l1.068-0.696
		l1.256,0.97L136.185,554.332z M822.804,396.801l-9.465,6.696c-3.437,2.433-7.945,1.964-10.073-1.049l-0.925-1.307
		c-2.123-3.012-1.062-7.427,2.375-9.861l9.46-6.696c3.438-2.434,7.952-1.964,10.077,1.048l0.925,1.307
		C827.304,389.952,826.239,394.367,822.804,396.801z M851.557,376.446l-9.46,6.697c-3.438,2.433-7.95,1.963-10.075-1.049
		l-0.923-1.308c-2.128-3.012-1.063-7.428,2.375-9.861l9.46-6.696c3.437-2.433,7.947-1.964,10.075,1.048l0.922,1.309
		C856.059,369.598,854.995,374.012,851.557,376.446z M880.312,356.092l-9.462,6.696c-3.437,2.434-7.945,1.965-10.073-1.048
		l-0.925-1.309c-2.125-3.013-1.062-7.427,2.377-9.861l9.46-6.695c3.437-2.434,7.945-1.964,10.075,1.048l0.921,1.308
		C884.812,349.244,883.75,353.658,880.312,356.092z M906.058,287.873c0.314,1.724,0.871,3.551,1.564,5.363l-3.082-4.369
		C905.025,288.538,905.532,288.205,906.058,287.873z M910.515,324.566l0.925,1.311c2.126,3.012,1.064,7.425-2.374,9.858
		l-9.458,6.699c-3.438,2.433-7.95,1.964-10.075-1.049l-0.923-1.309c-2.128-3.012-1.063-7.427,2.375-9.86l9.458-6.697
		C903.881,321.085,908.392,321.555,910.515,324.566z M896.506,304.715l0.92,1.309c2.128,3.014,1.066,7.428-2.372,9.861l-9.461,6.696
		c-3.438,2.436-7.949,1.964-10.075-1.047l-0.925-1.309c-2.125-3.013-1.063-7.427,2.375-9.861l9.46-6.697
		C889.869,301.233,894.378,301.703,896.506,304.715z M862.956,290.512l9.46-6.698c3.438-2.434,7.945-1.964,10.075,1.048l0.925,1.309
		c2.123,3.012,1.063,7.428-2.375,9.861l-9.464,6.697c-3.437,2.432-7.945,1.963-10.073-1.048l-0.923-1.311
		C858.456,297.358,859.518,292.946,862.956,290.512z M867.748,325.069l0.925,1.31c2.127,3.013,1.063,7.427-2.375,9.86l-9.46,6.697
		c-3.437,2.434-7.95,1.964-10.075-1.047l-0.925-1.311c-2.126-3.013-1.062-7.427,2.377-9.859l9.46-6.697
		C861.113,321.588,865.622,322.058,867.748,325.069z M834.2,310.867l9.461-6.697c3.436-2.434,7.949-1.965,10.077,1.048l0.92,1.309
		c2.128,3.012,1.066,7.427-2.374,9.86l-9.461,6.697c-3.438,2.433-7.947,1.964-10.072-1.048l-0.925-1.309
		C829.698,317.714,830.762,313.3,834.2,310.867z M838.994,345.424l0.923,1.31c2.125,3.011,1.062,7.427-2.372,9.859l-9.463,6.698
		c-3.434,2.433-7.949,1.964-10.073-1.048l-0.924-1.309c-2.128-3.014-1.064-7.428,2.374-9.861l9.463-6.697
		C832.355,341.943,836.867,342.412,838.994,345.424z M805.445,331.221l9.462-6.698c3.435-2.433,7.947-1.965,10.073,1.049l0.925,1.31
		c2.128,3.011,1.062,7.426-2.375,9.857l-9.465,6.698c-3.436,2.433-7.945,1.964-10.072-1.048l-0.925-1.31
		C800.945,338.068,802.007,333.653,805.445,331.221z M810.236,365.777l0.925,1.311c2.126,3.012,1.064,7.425-2.374,9.861
		l-9.458,6.696c-3.438,2.434-7.95,1.962-10.073-1.048l-0.927-1.31c-2.126-3.012-1.062-7.427,2.375-9.861l9.46-6.696
		C803.603,362.297,808.111,362.766,810.236,365.777z M776.689,351.575l9.46-6.696c3.438-2.433,7.95-1.964,10.075,1.047l0.925,1.31
		c2.126,3.012,1.062,7.426-2.377,9.859l-9.458,6.699c-3.436,2.433-7.949,1.961-10.075-1.049l-0.925-1.309
		C772.188,358.421,773.251,354.009,776.689,351.575z M674.764,285.271c4.022-5.82,11.031-7.941,15.644-4.741
		c4.614,3.2,5.093,10.512,1.068,16.333l-8.271,11.957c-5.283-4.25-10.708-8.333-16.257-12.246L674.764,285.271z M578.916,235.399
		c2.182-2.168,4.749-4.532,7.696-7.799c-1.554,7.31-3.912,14.832-11.041,21.021C576.065,243.817,577.511,239.542,578.916,235.399z
		 M582.821,250.992c-0.584,0.889-1.21,1.759-1.901,2.598c-0.144-0.046-0.289-0.091-0.433-0.138
		C581.357,252.606,582.13,251.805,582.821,250.992z M569.294,257.247l0.741,0.427l-0.741-0.259l-3.966-2.12l-0.014-0.007
		l-1.67-1.132c-0.388,0.47-0.792,0.86-1.229,1.341l-9.069-3.326c0,0,0.042-0.006,0.083-0.011l8.986,3.252
		c0.438-0.48,0.842-0.954,1.229-1.425l1.67,0.965L569.294,257.247z M565.589,220.04c-0.593,4.363-0.738,7.853-0.985,10.92
		c-2.251,3.75-4.579,7.614-7.926,11.091C556.8,232.607,561.015,225.947,565.589,220.04z M552.454,251.856L552.53,252
		c0,0,0.003,0,0.005,0l-0.079-0.145c0.857-0.338,1.659-0.754,2.411-1.131c-0.772,0.387-1.448,0.727-2.332,1.073l0.853,0.306
		c-0.004,0.006-0.011,0.003-0.016,0.007l-0.936-0.302C552.443,251.807,552.45,251.858,552.454,251.856z M550.21,237.944
		c-0.354,2.083-0.467,4.389-0.579,7.287c-0.211-0.045-0.418-0.087-0.624-0.132C549.097,242.574,549.532,240.2,550.21,237.944z
		 M545.791,346.269c0,0,3.198-4.768,4.679-5.954c0.688-0.542,2.539-1.184,3.277-1.285c1.326-0.203,5.368-0.271,5.368-0.271
		s-1.746,2.334-1.212,3.981c0.521,1.612,4.521,2.8,4.521,2.8l-4.338,6.511c0,0,3.377,1.437,4.338,2.182
		c1.521,1.167,3.793,3.212,4.646,4.617c1.068,1.77,2.296,6.29,3.636,7.44c1.236,1.065,6.181,2.062,6.181,2.062l-0.368,4.701
		l-5.987,5.187l-4.853-1.195l-3.979,1.437c0,0-3.553-1.019-4.7-0.727c-0.992,0.271-3.416,2.047-3.416,2.047l-7.792,0.49l6.063-5.163
		l-3.892-4.25l4.235-1.647l-0.866-4.147l4.846,0.343c0,0,0.479-3.465,0.101-4.684c-0.32-1.002-2.168-3.619-2.168-3.619l-6.237-0.18
		l2.261-2.711l-3.616-0.728l-2.896-2.892L545.791,346.269z M542.956,248.355c0,0.005-0.003,0.009,0,0.014l-0.003-0.002
		c0-0.004,0-0.009-0.002-0.013L542.956,248.355z M534.084,245h0.002c-0.619,3-1.663,6.129-3.274,8.958
		C532.423,251.129,533.467,248,534.084,245z M527.719,362.198c0.022-0.777,2.168-3.265,2.168-3.265l4.332,0.61
		c0,0,1.086-3.162,2.172-3.874c1.071-0.676,9.4-1.082,9.4-1.082s-0.793,5.159-0.721,6.884c0.074,1.808,1.115,5.81,0,7.237
		c-0.918,1.178-5.784,1.447-5.784,1.447s-2.652,2.001-3.683,2.374c-1.479,0.524-6.23,0.694-6.23,0.694l-2.245-4.329l2.588-3.123
		C529.716,365.772,527.683,363.415,527.719,362.198z M522.768,240.079c-0.05,0.195-0.102,0.392-0.155,0.587
		c-0.024-0.003-0.052-0.006-0.078-0.01C522.614,240.463,522.691,240.271,522.768,240.079z M518.768,216.782
		c0.878,7.295,1.087,15.04-3.414,23.057c-0.111-0.011-0.224-0.022-0.336-0.034c-0.99-4.545-1.004-8.911-1.01-13.148
		C515.37,223.898,517.035,220.83,518.768,216.782z M507.054,208.782c0.449-0.486,2.14-2.077,2.312-2.241
		c0.26,0.411,0.493,0.788,0.608,0.994c2.825,5.081,2.865,9.615,2.062,13.997c-2.676,3.58-4.977,6.651-6.632,9.805
		c-0.89-2.937-2.19-5.984-3.665-9.445C501.995,217.444,503.106,213.048,507.054,208.782z M496.325,215.681
		c0.726,4.344,1.617,7.721,2.29,10.725c-0.967,3.938-1.957,7.99-3.825,11.997c-0.245-0.01-0.492-0.016-0.737-0.025
		C491.794,229.746,493.797,222.428,496.325,215.681z M487.056,238.203c-0.035,0-0.07-0.001-0.106-0.002
		c-0.01-0.278-0.017-0.557-0.019-0.833C486.968,237.644,487.009,237.922,487.056,238.203z M458.296,204.35
		c0.221-0.326,0.817-1.102,1.295-1.719l-0.354,22.686c-1.192-2.271-2.643-4.615-4.242-7.208
		C454.584,213.672,455.027,209.159,458.296,204.35z M448.716,212.775c1.364,4.187,2.749,7.392,3.861,10.262
		c-0.396,4.358-0.812,8.852-2.313,13.442C446.268,227.922,447.166,220.088,448.716,212.775z M444.435,240.401
		c-0.191,0.022-0.383,0.046-0.575,0.07c-0.555-1.613-0.94-3.23-1.2-4.847C443.09,237.108,443.689,238.643,444.435,240.401z
		 M294.607,284.395c2.812,2.115,5.187,3.579,7.23,4.947c0.611,1.069,1.229,2.152,1.822,3.267c-0.979,0.661-1.956,1.326-2.929,1.996
		C297.901,291.507,296.113,287.944,294.607,284.395z M293.913,308.494l-2.998,0.923l-4.274,1.317l-0.29,0.175l-0.329,0.196
		l-4.523,2.713l-0.283,0.169l-0.046-0.003l-3.922-0.353l2.437-1.833l0.038-0.028l4.24-3.191l0.172-0.13l0.04-0.029l3.188-2.398
		l0.363-0.121l3.238-1.08l0.474-0.158l1.35-0.45l1.756-0.753l0.929-0.398l2.377-1.019l2.035-0.984l0.163-0.079l5.217-2.523
		l0.84-0.406l2.225-1.077L306,297.768l-1.166,0.397l-5.548,1.889l-0.261,0.09l-3.497,1.19l-0.753,0.256l-1.401,0.478l-2.803,0.954
		l-0.318,0.109c0,0,0.102-0.065,0.281-0.182c0.414-0.267,1.265-0.812,2.36-1.504c0.448-0.283,0.937-0.59,1.454-0.914
		c0.12-0.075,0.242-0.151,0.365-0.229c0.961-0.598,2.002-1.24,3.052-1.874c0.072-0.045,0.146-0.088,0.22-0.132
		c1.414-0.853,2.827-1.681,4.054-2.358c0.922-0.508,1.741-0.933,2.371-1.213c0.084-0.036,0.177-0.074,0.265-0.112
		c0.675-0.284,1.49-0.576,2.381-0.879c0.523-0.178,1.068-0.36,1.628-0.548c1.408-0.472,2.877-0.98,4.183-1.539
		c0.795-0.341,1.532-0.698,2.149-1.082c3.534-2.182,9.067-7.524,13.543-9.638c8.786-4.126,25.515-8.879,34.415-9.757
		c1.485-0.153,5.993,0.118,5.993,0.118l-10.024,3.601c0,0-7.391,3.113-9.76,4.348c-2.335,1.218-9.04,5.428-9.04,5.428
		s-9.265,1.96-11.562,3.984c-0.766,0.667-1.147,2.847-1.812,3.62c-1.782,2.062-6.559,3.91-9.686,5.652
		c0.337,0.772,0.604,1.595,0.904,2.488c-0.3-0.894-0.594-1.716-0.93-2.488c-0.719,0.399-1.337,0.795-1.824,1.184
		c-0.621,0.498-1.73,1.696-2.652,2.714c-0.287,0.319-0.556,0.62-0.782,0.875c-0.095,0.108-0.18,0.205-0.259,0.294
		c-0.271,0.309-0.441,0.507-0.441,0.507l-3.574,1.217l-1.713,0.583l-0.01,0.003l-0.523,0.26l-5.259,2.625l-0.109,0.056l-0.307,0.154
		l-4.091,2.054l-2.727,1.368l-0.878,0.315l-4.068,1.458l-0.112,0.041l-0.209,0.165l-3.996,3.159l-0.375,0.296l-0.881,0.696
		l-1.406,1.112l2.763-1.01l0.08-0.029l0.286-0.104l0.851-0.311l3.546-1.871l0.209-0.11l0.419-0.22l2.688-1.417l5.255-2.055
		l3.063-1.198l1.677-0.879l0.437-0.23l5.396-2.833l0.079-0.042l0.005-0.002l-0.005,0.004l-0.059,0.049l-4.131,3.504l-0.316,0.267
		l-0.188,0.16l-4.777,2.251c0.002,0.002,0.006,0.003,0.008,0.006l-11.966,5.629l-0.485,0.541l-0.807,0.912
		c0-0.001-0.001-0.001-0.001-0.001l0.803-0.911l0.479-0.541l-0.006,0.003l-1.558,0.734l-0.146,0.068l-4.901,2.309l-0.819,0.385
		l-0.009,0.004l-0.4,0.188l-0.048-0.239l-0.163-0.826l-0.148-0.75l-1.035,0.303l-1.952,0.574l-4.747,1.393l-0.946,0.278l0.74-0.571
		l2.678-2.069l1.272-0.983l0.01-0.006l3.21-1.131l2.099-0.739l0.839-0.296l2.191-1.373l0.424-0.266l4.323-2.707l0.348-0.218
		l1.387-0.87l2.747-1.512l2.63-1.445l1.857-1.022L293.913,308.494z M308.874,308.523l0.829-0.795l-0.789,0.795l-1.074,1.055
		L308.874,308.523z M305.699,311.27c0.005,0.001-0.081,0.003-0.076,0.004l-4.455,3.833c-0.009-0.005-0.017-0.011-0.026-0.017
		l4.393-3.817C305.531,311.273,305.704,311.271,305.699,311.27z M284.863,320.089v0.002
		C284.862,320.09,284.862,320.09,284.863,320.089l0.018-0.02L284.863,320.089z M285,320.264l-2.298,2.692l-2.923,3.098
		c-0.079-0.368-0.188-0.871-0.275-1.234c0.087,0.355,0.17,0.698,0.249,1.065l2.954-3.268l2.293-2.521
		C285,320.111,285,320.263,285,320.264z M261.769,304.772c4.752,2.081,9.529,4.667,13.126,9.63
		c-0.498,0.422-0.992,0.848-1.488,1.274c-2.421-1.059-4.622-2.35-6.774-3.613C265.286,310.002,263.85,307.608,261.769,304.772z
		 M246.276,313.546c3.11,1.642,5.688,2.71,7.92,3.737c2.193,2.722,4.452,5.53,6.142,9.001
		C253.293,323.597,249.451,318.606,246.276,313.546z M256.989,330.819c-0.051,0.05-0.101,0.099-0.15,0.148
		c-0.447-0.29-0.883-0.59-1.305-0.906C255.994,330.324,256.478,330.574,256.989,330.819z M229.236,340.382
		c4.39,1.263,8.847,2.916,12.73,6.32c-0.656,0.744-1.311,1.49-1.96,2.239c-1.72-0.604-3.366-1.295-4.986-1.976
		C233.416,345.101,231.675,342.919,229.236,340.382z M220.792,343.911c4.061-0.19,7.113,1.119,9.847,2.918
		c0.856,1.468,1.656,2.839,2.451,4.109c-0.991-0.381-1.866-0.723-2.461-0.963C227.804,348.832,224.713,347.456,220.792,343.911z
		 M205.948,367.093c3.314,1.174,6.02,1.858,8.378,2.551c1.803,1.67,3.645,3.375,5.336,5.351c-0.399,0.568-0.803,1.137-1.199,1.709
		C212.953,374.649,209.218,370.931,205.948,367.093z M107.645,729.524c-0.348-6.21,9.846-22.853,9.846-22.853
		c2.753-4.578,4.616-3.981,6.667,0.059l18.946,37.298l-22.363,11.282C120.74,755.311,108.082,737.392,107.645,729.524z
		 M159.93,790.413c0,0-11.405,1.561-14.621-0.179C137.812,786.178,124,760.801,124,760.801l22-11.444l17.081,33.633
		C165.244,787.242,163.832,790.568,159.93,790.413z M170.592,692.736c-0.491,0.341-0.999,0.664-1.547,0.942
		c-6.506,3.315-14.466,0.719-17.773-5.795c-3.31-6.518-0.718-14.483,5.788-17.798c0.557-0.283,1.125-0.508,1.7-0.707
		c6.136-2.123,13.047,0.545,16.073,6.504C177.863,681.847,175.935,689.024,170.592,692.736z M203.966,758.617
		c-0.648,0.502-1.35,0.958-2.107,1.344c-6.505,3.312-14.464,0.719-17.771-5.795c-3.309-6.516-0.716-14.485,5.788-17.798
		c0.767-0.391,1.556-0.691,2.353-0.921c5.967-1.721,12.501,0.973,15.419,6.718C210.572,747.922,208.883,754.804,203.966,758.617z
		 M187.863,726.829l-12.896-25.454c6.721-4.111,10.649-11.258,10.903-18.743c7.007,16.912,15.413,33.092,25.076,48.401
		C204.737,725.588,195.87,723.802,187.863,726.829z M397.956,718.496c-2.004,2.737-8.701,10.427-8.701,10.427
		s-0.119,10.597-0.356,14.115c-0.117,1.634-1.778,8.194-1.778,8.194l3.226,1.578l-2.179,2.177l-0.815,4.552l-3.518,6.664
		l2.133,2.572l-7.147,3.003l0.928,3.468l-8.201-0.712l-12.435,6.358c0,0-1.761,5.231-1.959,7.045
		c-0.163,1.443,0.299,5.784,0.299,5.784l-3.299,2.067l-0.681,5.178l-6.006,3.138l-2.071,5.074l-4.217,3.73l-2.932-1.646
		l-2.128,2.366l3.253,3.62l-3.664,3.472l-9.715-1.656l0.727,3.044l-5.911-0.869l0.833,2.254l2.999,1.85l-2.982,0.958l0.354,3.259
		c0,0-2.538,0.577-3.365,0.397c-4.492-0.963-15.79-9.451-15.79-9.451s-4.699-4.462-5.881-6.256c-0.872-1.308-2.07-4.262-2.539-5.761
		c-0.354-1.139-0.5-3.627-1.147-4.619c-0.716-1.096-2.956-2.211-3.462-3.926c-0.479-1.611,1.103-5.067,0.691-6.697
		c-0.428-1.692-3.275-4.147-3.917-5.772c-1.425-3.596-0.699-15.464-0.699-15.464s-1.896-3.36-2.07-4.624
		c-0.158-1.153,0.811-3.456,0.692-4.612c-0.106-1.082-1.463-2.92-1.846-3.935c-1.639-4.329-1.362-13.989-3.227-18.227
		c-1.018-2.323-4.926-5.683-6.688-7.629c-2.173-2.396-5.487-7.175-8.105-10.095c-2.594-2.896-9.483-11.171-11.797-15.438
		c-3.001-5.517-3.305-15.08-5.674-20.885c-1.458-3.563-7.161-13.605-7.161-13.605s1.312-1.815,1.385-2.543
		c0.131-1.324-2.014-3.807-1.615-5.081c0.298-0.974,1.784-1.284,1.847-2.312c0.039-0.799-0.619-2.164-0.969-2.891
		c-0.838-1.706,0.112-5.715,0.366-7.604c0.164-1.284,0.534-3.895,1.082-5.059c0.676-1.466,2.876-3.941,3.439-5.445
		c0.675-1.81,1.153-7.622,1.153-7.622s2.465-8.334,2.302-10.856c-0.231-3.692-1.553-5.84-2.195-9.391
		c-0.271-1.488-1.074-4.464-1.812-5.784c-0.372-0.687-1.673-1.959-2.45-1.909c-0.917,0.062-2.488,1.708-2.605,2.621
		c-0.112,0.857,0.479,2.662,0.479,2.662l-1.649,1.988c0,0-1.729-1.809-2.441-2.476c-1.217-1.127-4.623-2.377-5.303-3.867
		c-0.354-0.776-0.119-2.455-0.552-3.178c-0.445-0.732-1.808-1.466-2.466-2.007c-0.969-0.801-2.641-2.844-2.984-4.06
		c-0.365-1.293,0.373-5.23,0-6.922c-0.383-1.746-2.409-4.413-3.884-6.031c-1.068-1.172-2.91-2.704-4.417-3.203
		c-0.857-0.287-4.622-0.417-4.622-0.417l-2.887-6.514c0,0-2.156-4.479-3.614-4.699c-1.245-0.204-3.299,2.275-4.554,2.163
		c-2.606-0.237-6.175-4.475-8.068-6.697c-1.693-1.986-4.873-6.426-5.301-8.998c-0.377-2.287,1.03-6.948,0.692-9.242
		c-0.26-1.764-1.982-5.153-2.544-6.684c-0.659-1.85-1.672-6.35-1.835-7.629c-0.226-1.656,0.428-5.27,0.231-6.697
		c-0.192-1.336-1.763-5.1-1.763-5.1s-0.32-2.053-1.446-3.98c-0.738-1.251-0.535,4.352-0.36,5.794
		c0.191,1.569,1.436,4.572,1.447,6.156c0.01,1.547-0.985,4.622-0.721,6.146c0.236,1.421,1.609,3.189,1.458,4.61
		c-0.062,0.529-1.385,1.611-1.385,1.611l-1.525-8.028l0.36-4.339c0,0-1.999-3.781-2.066-5.175c-0.051-1.179,0.969-3.292,0.985-4.61
		c0.017-0.937-0.698-2.762-0.755-3.704c-0.208-3.821,2.258-11.516,1.385-15.236c-0.194-0.84-1.14-2.5-2.202-4.303
		c-1.519-2.576-3.275-5.446-3.444-6.666c-0.748-5.311,1.165-17.052,2.415-22.164c2.652-10.869,7.426-24.139,12.051-34.849
		c0.019-0.042,0.038-0.089,0.058-0.132c2.245-5.191,9.969-20.845,12.8-26.143c1.814-3.412,6.172-10.483,10.121-16.798
		c0.692-1.106,1.371-2.188,2.023-3.225c0.076-0.124,0.153-0.246,0.23-0.368c1.007-1.601,1.938-3.079,2.736-4.345
		c0.018-0.029,0.038-0.061,0.056-0.09c0.138-0.215,0.269-0.426,0.396-0.628c0.693-1.106,1.58-2.431,2.595-3.892
		c0.257-0.371,0.52-0.748,0.793-1.136c0.569-0.808,1.171-1.651,1.796-2.514c0.299-0.412,0.604-0.831,0.911-1.251
		c0.85-1.163,1.731-2.351,2.627-3.544c0.389-0.516,0.779-1.034,1.17-1.548c3.42-4.513,6.896-8.898,9.326-11.744
		c0.047-0.056,0.099-0.117,0.145-0.171c0.53-0.618,1.198-1.391,1.948-2.259c0.076-0.087,0.154-0.176,0.231-0.266
		c0.351-0.404,0.718-0.827,1.097-1.262c0.562-0.646,1.146-1.319,1.742-2.001c0.509-0.583,1.023-1.171,1.533-1.756
		c1.196-1.368,2.368-2.708,3.385-3.868c0.038-0.044,0.074-0.085,0.111-0.128c1.803-2.058,3.09-3.527,3.09-3.527l-1.322,5.039
		l-0.03,0.116l-0.374,1.425l-1.211,3.805l1.019,0.141l4.003,0.557l1.156-0.357l0.355-0.11l1.33-0.411l1.365-0.422l1.302-0.402
		l2.826-5.728l0.385-0.781l1.615-3.277l-2.915,1.76l-0.835,0.505l-0.365,0.222l-2.759-1.034c0,0,0.563-1.293,1.13-2.285
		c0.239-0.417,0.479-0.782,0.677-0.972c0.123-0.116,0.271-0.233,0.438-0.348c0.133-0.093,0.281-0.185,0.438-0.277
		c1.315-0.773,3.302-1.507,4.23-2.187c0.23-0.17,0.479-0.372,0.742-0.595c0.235-0.201,0.484-0.421,0.74-0.652
		c0.068-0.062,0.14-0.126,0.209-0.19c0.842-0.768,1.764-1.646,2.666-2.451c0.105-0.094,0.211-0.145,0.316-0.237
		c0.774-0.677,1.521-1.634,2.179-1.634h0.001c0.021,0,0.044-0.072,0.063-0.084c1.029-0.617,2.909-1.537,4.872-2.426
		c2.053-0.928,4.194-1.857,5.553-2.432c0.865-0.366,1.173-0.597,1.173-0.597S280,324.221,279,324.782c0,0,0-0.001,0-0.002
		c-1,0.831-2.524,2.028-3.604,2.896c0.447,0.188,1.028,0.468,1.51,0.694c-0.48-0.201-0.887-0.421-1.331-0.61
		c-0.295,0.236-0.521,0.405-0.712,0.577c-1.823,1.628-6.722,7.097-6.722,7.097l2.529,0.711l-1.798,4.328l7.597-2.167l2.527,1.081
		l5.787-7.603l-4.756,1.431l-2.769-2.243c0,0,4.385-5.518,6.438-7.148c1.723-1.364,7.57-4.458,7.57-4.458l-2.421,4.852
		c0,0,11.275-8.409,15.733-10.562c2.337-1.127,8.821-2.947,8.821-2.947l4.277,3.342c0,0,2.605-1.961,4.463-1.814
		c1.144,0.095,4.819,1.533,5.963,1.589c1.288,0.08,6.202-1.222,6.202-1.222l-0.721,6.87c0,0,3.676-0.438,4.891-0.274
		c1.858,0.248,7.037,2.803,7.037,2.803h2.533l-1.446,2.72l-2.888,3.172l-2.534-0.771l-1.447,3.602l-5.425-1.826l-3.253-1.087
		l-2.527,1.691l2.527,3.5h3.253l1.812,2.653l-2.894,2.948l-1.808,1.482l1.808,0.736l-3.974,0.369l-2.532-0.358l0.72,2.9
		l-6.867,1.445l-6.507-0.547L308.278,343h-6.141l-8.68,1.268l1.806-6.604l-4.334,0.683l-6.866,3.638L280.803,346h4.34l0.721,2.497
		L283.337,351h-3.98l-6.146,6h-3.974l6.867-9.712l-10.841,9.445l-6.147,6.892l-8.679,9.061l-6.141,9.058l3.613-1.093l0.714,5.435
		l4.706-2.174l3.613,1.093l3.621,0.721l2.165,2.176l3.255-2.896l3.857,0.72L269,388.983v4.701l2.648-1.595l-0.606,4.91h-2.531
		l1.446,3h2.898l1.08-2.791l2.535-2.483l-0.727-7.934l6.506-5.06l3.98-4.339l1.08-4.342l0.726-3.978l-3.253-1.093l5.414-5.061
		l-0.354-3.257l-2.532,0.361l3.253-3.98l1.814-3.264l6.865-1.89l6.141-1.889h3.62l0.728,4.427l5.054-2.496l-2.533,4.719l2.533,3.642
		l3.259,0.726l5.78-5.071l6.508-7.236l2.532,6.155l1.441,5.066l2.173,6.157l1.807,2.133l3.613,1.777H347v4.054l4.31,0.361
		l-2.174,4.34l1.081,3.263l-5.788,2.893l-6.509,2.535l-3.614,6.156l-6.867,0.728l-10.122,1.088l-6.866,2.896l-3.98,2.896
		l-7.948,7.598l12.644-6.875l5.431-1.094l-1.452,3.618l-2.893,2.182l-2.889,0.715l2.168,2.537l3.613-3.619l-2.893,5.069
		l-0.354,2.902l3.612-3.618l1.086,2.165l3.248-0.721l1.446,1.082l-3.613,2.175l-3.253-0.359l0.72,1.448l7.959-2.17l2.889-4.711
		l2.533-1.706L326.719,412h3.253l-3.253,3.152l-3.261,1.042l-3.247,3.22l-6.507,1.44l-3.253,4.696l-3.621,2.177l-1.08-5.076
		l4.701-4.707c0,0-4.656,2.373-6.147,3.257c-2.117,1.247-6.158,4.036-8.077,5.559c-2.223,1.759-7.149,6.477-7.83,8.201
		c-0.331,0.84,0.276,3.196,0.276,3.196l2.252-2.604l0.168,3.81l-0.866,2.431l-2.939-1.045c0,0-9.122,2.6-10.891,5.019
		c-0.625,0.862-0.39,3.213-0.868,4.16c-0.573,1.149-2.082,2.378-2.594,3.29c-0.788,1.41-0.997,4.792-1.729,6.235
		c-0.715,1.422-2.605,3.494-3.107,4.848c-0.917,2.469,0.688,7.18-1.04,9.007c-0.553,0.586-2.309,0.597-2.882,1.115
		c-0.637,0.563-0.53,2.595-1.081,3.253c-0.562,0.66-2.674,0.457-3.265,1.082c-0.675,0.738-0.682,2.7-1.419,3.376
		c-0.743,0.688-2.246-0.405-2.916-0.112c-1.075,0.473-1.807,4.346-1.807,4.346l-4.34,6.156l-3.613,7.963c0,0,1.43,6.077,1.615,8.141
		c0.152,1.855,0.079,5.591-0.163,7.429c-0.299,2.198-0.608,5.551-1.222,7.294c-0.552,1.537-2.594,5.021-2.594,5.021l-4.155,0.862
		c0,0,1.975-5.648,1.903-7.621c-0.029-0.722-1.014-1.95-1.166-2.66c-0.169-0.812,0.36-3.264,0.36-3.264s-0.895-4.256-0.749-5.675
		c0.102-1.003,1.069-3.044,0.692-3.98c-0.367-0.891-2.155-2.254-3.118-2.254c-0.643,0-1.773,0.877-2.414,0.868
		c-0.935-0.018-2.533-1.273-3.462-1.387c-1.486-0.169-4.768,0.461-5.775,1.572c-0.631,0.692-0.052,2.553-0.451,3.275
		c-0.631,1.162-3.703,2.064-4.84,2.085c-1.481,0.017-4.07-2.164-5.556-2.11c-2.026,0.081-6.861,4.343-6.861,4.343
		s-4.402,6.492-5.303,8.927c-0.939,2.554-1.373,8.062-1.649,10.769c-0.27,2.644-0.456,8.724-0.456,10.618
		c-0.012,2.812,1.841,11.08,1.841,11.08s3.54,7.611,6,7.858c1.769,0.17,5.348-4.723,5.348-4.723s1.278-4.099,1.813-5.423
		c0.624-1.584,1.648-5.005,2.887-6.154c0.72-0.666,2.358-2.006,3.32-2.177c0.985-0.171,4.273,0.361,4.273,0.361
		s-0.299,5.2-0.722,6.875c-0.411,1.611-2.032,3.382-2.397,5.005c-0.31,1.409,0.028,5.503-0.136,6.944
		c-0.275,2.448-4.153,7.297-2.893,9.411c0.703,1.176,5.426,0.727,5.426,0.727s3.896-1.658,5.062-1.082
		c0.866,0.44,1.306,2.797,2.167,3.257c0.642,0.344,2.888,0,2.888,0l-0.068,3.371c0,0-2.904,2.932-3.179,4.227
		c-0.354,1.636,1.613,4.042,1.794,5.463c0.282,2.13-1.743,4.096-2.07,5.546c-0.451,2.022-0.197,4.976,0.46,6.467
		c0.896,2.023,3.04,6.928,5.241,7.146c1.599,0.159,3.051-2.891,4.3-3.481c0.88-0.424,3.097-0.39,3.89,0.167
		c1.646,1.167,4.239,5.975,4.239,5.975s2.477-3.461,3.022-4.754c0.591-1.409,1.035-4.478,1.902-5.811
		c0.782-1.194,4.334-3.681,4.334-3.681s3.98-1.886,5.174-2.721c1.164-0.812,4.068-3.466,4.068-3.466l1.206,6.927l1.04-0.261
		c0,0-0.725-3.483-0.264-4.502c0.247-0.525,1.817-1.387,1.817-1.387s0.372,4.21,1.386,5.022c0.715,0.574,2.999,0.135,3.546,0.866
		c0.777,1.042-0.264,5.198-0.264,5.198s4.277-0.812,5.707-0.7c1.339,0.112,5.145,1.537,5.145,1.537l3.974-3.983
		c0,0,4.047,0.951,5.422,1.091c1.53,0.147,6.15,0,6.15,0l-2.966,5.344c0,0,3.327,1.335,4.153,2.164
		c2.837,2.834,5.225,11.058,7.864,14.117c1.256,1.445,4.244,4.038,5.972,3.721c0.828-0.152,1.841-1.938,2.674-2.078
		c1.322-0.22,5.072,1.706,5.072,1.706s9.006,7.373,11.099,10.587c1.352,2.083,3.361,9.334,3.361,9.334l6.147,2.894l4.553,12.596
		l12.053,5.311l2.763,5.016c0,0,4.53,1.3,5.881,2.076c0.84,0.485,2.027,2.211,2.944,2.514c1.217,0.389,5.067-0.727,5.067-0.727
		l17.713,14.479l5.78-1.086l0.728,22.085C404.081,709.009,399.634,716.229,397.956,718.496z M355.945,396.221l-1.42,2.897
		l3.266,0.36l-4.342,5.073l-3.602,1.803l1.086-3.617l-7.225,3.985l2.529-5.298L343.346,403h-6.867l-4.706,1.317l1.812-2.23
		l2.894-4.378l4.334-5.817l3.98-5.797l5.786-3.263l-5.786,9.418l4.699-2.183l-1.139,3.619l4.646-1.811v2.903L355.945,396.221z
		 M255.862,530.894c-0.236-0.384-1.812,0-1.812,0s-0.619-3.551-0.36-4.702c0.157-0.709,0.783-2.334,1.475-2.536
		c0.467-0.135,1.835,0.723,1.835,0.723v2.897c0,0-1.34,0.011-1.475,0.36c-0.535,1.466,3.606,5.067,3.606,5.067l0.707,2.893
		c0,0-1.974-0.294-2.531,0c-0.575,0.314-1.403,1.521-1.443,2.182c-0.045,0.761,0.995,2.891,0.995,2.891s-6.737-3.923-7.868-6.156
		c-1.503-2.985-0.366-13.394-0.366-13.394l2.533,2.176c0,0,0.838,5.853,1.547,7.676c0.305,0.768,1.711,2.819,1.711,2.819
		S256.284,531.58,255.862,530.894z M253.048,542.917l8.234,6.803l-4.699,1.448c0,0-3.147-1.109-4.223-0.981
		c-0.737,0.088-2.375,0.743-3.112,0.64c-1.66-0.238-2.83-3.191-3.512-4.731c-0.371-0.839-0.726-3.617-0.726-3.617l-3.255-1.082
		c0,0-1.104,1.827-1.678,2.215c-0.799,0.541-3.735,1.048-3.735,1.048s-1.414-2.186-2.18-2.536c-0.652-0.305-2.888,0-2.888,0
		s3.091-4.853,4.7-5.795c1.345-0.799,4.593-1.261,6.147-1.086c1.188,0.135,3.58,0.691,4.593,1.335
		C248.607,537.771,253.048,542.917,253.048,542.917z M265.983,557.324c0,0-0.215-3.113-0.721-3.984
		c-0.361-0.61-2.167-1.805-2.167-1.805l2.888-1.454l3.495,1.149l3.012-0.427l0.799,1.634l3.901,0.902l-0.964,1.352l1.69,1.178
		l-0.305,2.283l-4.036,0.254l-1.452,1.454l-2.528-0.728l-1.204,1.082l-7.828-3.127L265.983,557.324z M478.55,296.305
		c-4.875,1.162-15.182,0.046-19.993,1.449c-6.991,2.045-18.014,12.666-24.835,15.202c-2.207,0.828-7.171-0.046-9.4,0.728
		c-3.338,1.166-8.81,6.137-10.97,8.944c-2.77,3.609-3.546,9.858-6.509,12.903c-1.57,1.617-8.549,5.664-8.549,5.664l-5.061-3.618
		l-7.952,1.455c0,0-0.114-9.413-0.846-11.464c-1.633-4.521-10.571-13.394-10.571-13.394s4.977-5.062,7.077-6.28
		c1.479-0.867,6.066-2.547,6.066-2.547l-1.385-3.122l-7.261,2.941l4.035-5.078l-3.398-4.379l-7.324,1.386
		c0,0-0.664-3.263-1.896-4.396c-1.407-1.286-5.426-2.008-7.323-2.076c-4.83-0.175-18.907,3.924-18.907,3.924l-8.995-2.075
		l10.842-6.234l13.256-3.697l-7.143,0.462c0,0,19.503-11.691,26.422-14.081c9.551-3.315,29.988-4.781,39.762-7.373
		c9.248-2.452,26.805-10.856,36.271-12.176c6.103-0.856,18.463,0.863,24.588,1.443c3.613,0.339,8.825,1.922,11.335,3.494
		c1.24,0.778,3.626,3.258,4.572,3.619c0.905,0.349,4.778-1.127,6.377-1.443c4.717-0.936,19.184-1.449,19.184-1.449l-8.928,4.346
		c0,0-3.784-1.286-5.065,0c-0.766,0.762-1.081,3.247-1.081,3.247l2.651,3.867l-8.077,4.464l6.507,3.624l-5.19,6.511
		c0,0-7.762-1.205-8.545,0c-0.499,0.778,1.301,2.909,0.728,3.629c-0.827,1.027-4.981,0.125-5.067,1.443
		c-0.084,1.376,5.067,2.165,5.067,2.165s-3.204,1.386-4.341,1.454c-0.917,0.056-3.619-0.727-3.619-0.727s-2.662-1.651-3.614-1.438
		c-1.424,0.305-3.619,3.8-2.893,5.061c1.092,1.884,8.679,0,8.679,0S480.835,295.758,478.55,296.305z M483.268,927.752
		c0,0,2.483-1.329,3.188-1.775c0.165-0.105,0.775-0.425,1.625-0.966c0.042,0.268,0.336,0.245,0.913-0.141
		c0.646-0.432,1.257-0.759,1.836-1.02C487.742,926.342,484.691,927.446,483.268,927.752z M494.03,916.265
		c-3.567,0.303-6.915,0.337-9.994,0.185l0.023,0.042c-3.471,7.409-9.928,9.956-12.092,10.421c0,0,2.174-1.162,2.791-1.553
		c0.523-0.33,6.013-3.039,8.729-8.936c-8.151-0.465-14.342-2.211-17.528-3.58c0,0,8.229,2.092,10.828,2.236
		c0.925,0.049,5.15,0.417,11.271,0.08c-4.138-6.45-11.104-8.549-11.767-8.829c-0.769-0.323-3.438-1.23-3.438-1.23
		c2.514,0.119,10.913,2.375,16.213,9.997c2.043-0.135,4.271-0.346,6.646-0.674C495.124,915.048,494.562,915.663,494.03,916.265z
		 M502.938,907.723c-5.318-4.738-10.699-6.448-11.361-6.727c-0.959-0.406-4.296-1.537-4.296-1.537
		c2.529,0.121,10.238,1.873,16.608,7.516C503.568,907.222,503.251,907.471,502.938,907.723z M504.033,930.1
		c0.144-1.742,1.286-5.815,3.937-10.172c1.108-1.818,2.478-3.686,4.147-5.454c1.046-1.104,2.209-2.168,3.497-3.155
		c0.102,0.18,0.202,0.361,0.31,0.543c-7.249,5.849-9.849,13.217-10.207,13.994C505.279,926.8,504.033,930.1,504.033,930.1z
		 M528.046,946.044c-0.363-0.627-3.34-7.274-10.257-10.549c0.453,6.12,1.36,10.271,1.531,11.182
		c0.476,2.561,3.608,10.463,3.608,10.463c-1.769-2.987-4.293-8.91-5.804-16.945c-5.492,3.459-7.468,9.256-7.728,9.819
		c-0.306,0.662-1.179,2.972-1.179,2.972c0.182-2.208,1.874-8.948,8.765-13.35l0.047,0.016c-0.595-3.288-1.017-6.917-1.148-10.836
		c-0.016-0.462-0.022-0.929-0.029-1.4c-6.083,3.968-8.277,10.43-8.574,11.062c-0.139,0.301-0.377,0.897-0.619,1.509
		c-0.363,0.929-0.725,1.887-0.725,1.887c0.028-0.363,0.101-0.841,0.213-1.396c0.673-3.279,3.034-9.485,9.693-13.79
		c-0.024-4.143,0.285-8.585,1.049-13.262c0.46,0.707,0.944,1.402,1.447,2.087c0.038,0.052,0.076,0.101,0.114,0.155
		c0.306,0.408,0.617,0.816,0.937,1.221c-0.333-0.216-0.674-0.424-1.024-0.629c-0.484,3.483-0.727,6.819-0.803,9.925
		c-0.076,3.013,0.002,5.8,0.161,8.298c8.229,4.282,11.546,12.333,11.983,14.813C529.705,949.296,528.466,946.764,528.046,946.044z
		 M531.363,930.176c-0.171-0.287-0.771-1.545-1.903-3.268c0.598,0.479,1.186,0.944,1.765,1.385c1.314,2.592,2.006,4.796,2.213,5.951
		C533.438,934.244,531.887,931.073,531.363,930.176z M546.567,888.129c0,0-3.013,1.829-3.86,2.433
		c-0.651,0.465-6.602,3.912-10.98,11.069c-0.599,0.979-1.169,2.027-1.691,3.146c2.078,0.1,4.103,0.124,6.046,0.081
		c4.521-0.099,8.628-0.534,12.134-1.077c3.523-8.592,11.23-12.62,13.659-13.285c0,0-2.408,1.466-3.086,1.948
		c-0.591,0.418-6.936,3.984-9.57,11.18c6.044-1.001,10.091-2.278,10.982-2.529c2.507-0.705,10.081-4.54,10.081-4.54
		c-2.812,2.033-8.477,5.083-16.33,7.312c3.933,5.162,9.876,6.614,10.457,6.823c0.687,0.245,3.062,0.907,3.062,0.907
		c-2.213,0.018-9.067-1.064-14.063-7.542l0.013-0.045c-3.595,0.99-7.638,1.801-12.063,2.27c4.493,5.707,11.117,7.319,11.77,7.557
		c0.783,0.281,3.499,1.037,3.499,1.037c-2.518,0.022-10.288-1.207-15.991-8.518c-0.906,0.088-1.831,0.155-2.768,0.211
		c-4.123,0.249-8.535,0.191-13.208-0.303c6.697,7.793,15.201,9.961,16.057,10.264c0.979,0.353,4.37,1.3,4.37,1.3
		c-3.147,0.022-14.106-2.503-21.244-11.662c-0.056-0.007-0.112-0.014-0.166-0.021c-1.027-0.121-2.064-0.263-3.117-0.429
		c-0.64-0.099-1.286-0.209-1.937-0.327c-1.369-0.247-2.759-0.521-4.164-0.849l-0.797-2.294c1.843,0.498,3.677,0.906,5.488,1.25
		c0.657,0.123,1.311,0.24,1.961,0.346c0.757,0.123,1.506,0.233,2.251,0.332c1.858,0.245,3.69,0.422,5.477,0.537
		c0.537-1.307,1.158-2.527,1.845-3.663C535.637,892.817,543.9,888.855,546.567,888.129z M709.923,767.659
		c-0.896-1.411,1.523-4.85,1.44-6.518c-0.085-1.715-0.27-4.825,0-6.518c0.399-2.41,3.699-5.229,4.341-7.236
		c0.655-2.073-0.439-6.571,0-8.69c0.463-2.227,3.613-8.333,3.613-8.333s4.482-2.231,5.789-3.257
		c1.508-1.183,3.954-4.217,5.063-5.795c1.063-1.516,3.613-6.516,3.613-6.516l4.334-5.788c0,0,1.176,9.464,0,12.304
		c-0.482,1.189-2.602,2.31-3.062,3.506c-0.406,1.065,0.078,3.584-0.254,4.68c-0.377,1.252-2.518,3.007-3.191,4.125
		c-3.276,5.447-5.847,18.207-8.677,23.898c-1.477,2.987-5.647,8.74-8.673,10.138C713.271,768.11,710.497,768.582,709.923,767.659z
		 M765.728,836.439c-1.271,1.298-3.923,0.75-5.925-1.219l-43.924-43.176c-2.002-1.966-2.594-4.614-1.326-5.909
		c1.272-1.298,3.926-0.75,5.928,1.219l43.919,43.174C766.403,832.498,766.998,835.145,765.728,836.439z M775.348,826.625
		c-1.271,1.295-3.924,0.75-5.926-1.221l-43.921-43.172c-2.002-1.969-2.595-4.614-1.326-5.909c1.271-1.298,3.921-0.75,5.925,1.219
		l43.919,43.171C776.022,822.684,776.617,825.33,775.348,826.625z M784.969,816.812c-1.27,1.293-3.925,0.749-5.927-1.221
		l-43.921-43.172c-2.003-1.969-2.598-4.617-1.327-5.912c1.269-1.297,3.924-0.749,5.928,1.222l43.919,43.171
		C785.643,812.869,786.239,815.515,784.969,816.812z M743.416,756.693c1.269-1.293,3.921-0.75,5.928,1.219l43.916,43.176
		c2.005,1.969,2.6,4.614,1.329,5.909c-1.271,1.298-3.924,0.75-5.926-1.219l-43.923-43.173
		C742.738,760.635,742.144,757.99,743.416,756.693z M799.751,556.056c0,0-0.442-9.79-1.495-12.852
		c-0.761-2.197-3.641-5.985-4.659-8.082c-0.812-1.674-1.463-5.599-2.77-6.923c-0.98-0.992-5.225-2.008-5.225-2.008l-6.188,0.965
		l-8.272-5.311c0,0-0.75-5.19-2.168-5.788c-1.271-0.542-5.06,2.17-5.06,2.17s-4.614-2.707-5.79-3.625
		c-1.369-1.07-3.255-3.979-3.255-3.979s-2.87-11.421-6.141-11.578c-1.627-0.091-3.62,5.421-3.62,5.421l2.893,5.068l0.878,4.464
		l6.121,3.5v4.346l6.628,5.068l6.743-7.959l0.299,10.13c0,0,6.621,3.748,7.663,5c1.44,1.735-0.419,11.588-1.057,13.855
		c-1.728,6.232-8.016,13.538-12.114,17.665c-3.784,3.812-13.434,12.524-17.92,15.478c-4.358,2.873-15.973,8.408-15.973,8.408
		l2.42,7.283l20.748-6.934c0,0-2.771,16.483-4.437,21.782c-1.775,5.647-6.309,16.672-9.401,21.729
		c-3.556,5.835-12.364,16.371-16.627,21.719c-3.133,3.935-10.744,13.522-12.423,18.93c-1.535,4.991,0.287,15.069,0.698,20.085
		c0.209,2.525-0.344,13.159-0.344,13.159s-1.598,9.783-2.393,12.986c-0.866,3.504-3.579,11.759-5.909,15.073
		c-3.477,4.904-12.665,9.932-15.22,14.544c-2.616,4.723-0.783,11.553-3.456,15.578c-1.392,2.097-6.861,7.926-8.647,9.701
		c-1.67,1.656-3.713,7.209-5.086,9.543c-1.504,2.559-7.228,9.413-7.228,9.413l-10.127,10.856c0,0-7.472,6.729-10.414,8.286
		c-3.615,1.895-15.609,4.745-15.609,4.745s-8.576,4.96-10.848,3.27c-1.091-0.812,0.173-9.671-0.521-11.835
		c-1.134-3.6-6.114-9.608-7.432-13.147c-0.956-2.57-1.447-10.867-1.447-10.867s1.447-7.963,1.447-10.129
		c0-2.168-4.338-10.141-4.338-10.141s-4.184-9.054-4.341-12.311c-0.119-2.604,2.531-10.134,2.531-10.134l3.976-13.754l5.065-8.692
		c0,0-2.353-6.453-2.168-8.686c0.107-1.381,1.712-6.318,1.521-8.455c-0.27-2.977-3.9-8.158-4.419-11.094
		c-0.254-1.437,1.75-7.643,0.956-10.028c-1.311-4.013-9.736-8.367-11.797-12.058c-0.98-1.75-0.612-6.048-0.303-8.032
		c0.646-4.08,5.723-15.5,5.723-15.5s-2.267-9.306-5.065-10.495c-2.476-1.059-8.01,3.62-10.481,2.527
		c-3.779-1.658-4.222-12.708-7.949-14.479c-2.245-1.064-9.759,1.815-9.759,1.815l-7.743,3.924c0,0-5.879,5.323-9.257,5.849
		c-3.427,0.539-10.29-2.621-13.733-2.168c-3.528,0.458-9.472,5.036-13.013,4.702c-4.222-0.389-8.832-8.282-11.934-10.863
		c-2.602-2.175-9.524-4.661-11.207-7.598c-1.74-3.05-0.693-11.013-2.888-13.751c-2.854-3.573-11.552-6.282-13.015-10.149
		c-1.046-2.756,2.161-11.584,2.161-11.584s-1.98-3.409-2.161-5.065c-0.287-2.659,3.333-7.406,4.147-9.977
		c1.003-3.15,1.368-9.922,0.908-13.197c-0.485-3.479-2.826-10.229-2.895-13.747c-0.067-3.838,1.993-11.387,3.372-14.966
		c1.626-4.232,8.922-15.811,8.922-15.811l4.34-2.898c0,0,1.317-4.407,2.303-5.535c1.626-1.85,6.572-3.472,8.543-4.96
		c2.842-2.153,7.71-9.232,7.234-12.311c-0.399-2.581,1.03-9.503,2.899-11.927c1.414-1.838,5.264-4.577,7.221-5.812
		c1.593-0.998,4.993-2.868,6.151-4.357c1.07-1.375,2.527-6.504,2.527-6.504l16.629,3.991l8.673-6.167c0,0,8.483-4.227,11.572-4.339
		c2.253-0.08,8.67,2.536,8.67,2.536s5.988-1.241,7.11-1.443c3.191-0.621,10.243-0.733,10.243-0.733s6.929-2.063,7.959-0.36
		c0.918,1.532-3.62,6.154-3.62,6.154s4.165,2.617,4.341,4.352c0.208,2.108-5.421,6.517-5.421,6.517l6.146,5.061
		c0,0,5.999,0.631,7.952,1.082c2.227,0.519,7.366,2.108,8.677,3.986c0.88,1.268-0.687,3.692,0,5.074
		c0.906,1.808,5.445,0.974,7.227,1.437c2.353,0.626,7.331,4.712,9.041,3.63c1.737-1.105,1.082-7.97,1.082-7.97
		s7.689-5.627,10.133-4.341c1.625,0.869,1.424,4.183,2.519,5.074c0.914,0.733,5.665,1.121,5.665,1.121l2.657,3.94l6.064-1.42
		c0,0,4.987,3.263,8.219,3.111c1.704-0.084,7.005-1.813,7.005-1.813l4.018,1.578l8.085,0.405l6.289-16.098
		c0,0,0.856-11.161-2.088-12.548c-0.772-0.371-2.042,1.771-2.893,1.812c-1.008,0.049-3.611-1.812-3.611-1.812
		s-2.271,3.941-3.62,3.979c-2.256,0.07-5.56-5.434-7.229-5.434c-1.659,0-2.671,2.247-4.31,1.92
		c-1.295-0.248-2.197-2.321-2.197-2.321h-5.063c0,0-1.895-5.459-2.891-7.037c-1.035-1.634-4.114-4.679-4.693-6.229
		c-0.877-2.335,4.401-4.792,4.014-6.686c-0.591-2.808-10.893-3.515-10.893-3.515s-3.421,2.233-3.641,3.484
		c-0.462,2.689,3.715,7.386,3.461,10.377c-0.197,2.278-5.07,7.619-5.07,7.619s-1.176-5.818-2.31-7.397
		c-0.982-1.362-4.271-2.762-5.447-3.963c-1.308-1.335-3.306-4.685-3.615-6.522c-0.451-2.682,0.721-8.68,0.721-10.86
		c0-2.172-5.786-1.449-5.786-1.449l-3.614-3.62l-5.779-2.897l-3.615-5.061l-5.063-6.889l-6.509,0.723c0,0,0.285,6.065,1.445,7.609
		c1.028,1.365,4.635,2.357,5.784,3.618c1.098,1.202,1.885,4.533,2.893,5.795c1.091,1.376,5.786,3.98,5.786,3.98
		s3.601,1.533,4.711,2.221c1.564,0.992,5.414,4.391,5.414,4.391l-2.081,1.961l-4.785-3.501l-1.205,2.925c0,0,3.221,2.4,3.229,3.579
		c0.009,1.15-2.076,2.187-2.076,2.187s-3.017,5.671-4.267,5.772c-0.704,0.062-1.108-1.793-1.108-1.793s3.281-4.78,2.896-6.517
		c-0.368-1.623-3.82-3.234-5.063-4.345c-1.441-1.279-3.492-4.685-5.063-5.8c-1.647-1.162-5.739-2.249-7.229-3.618
		c-1.019-0.93-2.218-4.375-3.106-5.75c-1.44-2.198-7.15-7.728-7.15-7.728s-2.593-1.201-3.917-0.812
		c-0.984,0.287-3.225,2.541-3.225,2.541l-6.806,2.075c0,0-6.43-1.24-8.241-1.094c-0.985,0.08-3.302,0.451-3.71,1.365
		c-0.664,1.488,1.198,3.94,0.424,5.389c-0.783,1.466-4.136,3.405-5.487,4.386c-1.872,1.336-6.001,3.112-7.137,4.973
		c-1.194,1.959-1.177,9.141-1.177,9.141s-0.861,4.604-1.802,5.794c-1.255,1.585-5.272,3.112-7.231,3.619
		c-2.095,0.536-6.514,0.231-8.637,0.654c-2.016,0.406-7.779,2.604-7.779,2.604l-4.671-3.29l-5.527,0.867l-1.215-8.658l-2.246-2.6
		c0,0,3.546-5.721,4.147-7.795c0.567-1.938-0.101-7.125-0.101-7.125l-2.669-8.279c0,0,4.08-0.828,5.188-1.387
		c1.064-0.534,3.986-2.643,3.986-2.643l5.01,1.781l10.898,1.115c0,0,5.167,1.658,6.507,0.728c1.226-0.851,0.557-6.341,0.923-8.427
		c0.271-1.518,2.336-5.693,2.336-5.693s-3.106-1.979-3.546-4.007c-0.462-2.114-5.065-4.685-6.917-6.062
		c-0.606-0.438-1.729-2.424-1.729-2.424s3.488-2.445,4.839-2.423c1.257,0.022,4.848,1.386,4.848,1.386s-0.524-2.078-0.395-2.76
		c0.135-0.722,1.447-2.538,1.447-2.538s4.323,1.833,5.86,1.833c1.298,0.005,3.775-1.15,4.839-1.9
		c1.06-0.755,3.286-4.001,4.671-5.027c1.295-0.953,4.55-1.713,5.954-2.508c1.464-0.812,4.085-3.417,4.343-5.068
		c0.135-0.833-1.306-3.157-1.306-3.157s7.451-0.585,9.683-1.037c1.665-0.344,5.752-2.052,6.082-3.049
		c0.925-2.79-3.734-9.081-2.166-11.583c0.546-0.868,3.979-1.082,3.979-1.082l4.693-2.177l1.452,9.774l2.889-2.165
		c0,0,4.426,1.093,5.059,0c0.736-1.274-2.894-5.072-2.894-5.072l-6.506-8.681c0,0-6.403,2.773-8.673,3.258
		c-1.772,0.36-7.227-0.733-7.227-0.733l-3.62-3.98l-2.173-5.794l2.173-5.788l11.567-6.522l5.059-0.361l4.346-3.978l2.889-3.619
		l6.509-2.176l-6.509-4.346l6.587-4.786l11.489,1.895l2.891-2.175c0,0,6.006-2.209,8.101-2.142c1.672,0.057,6.461,2.137,8.647,2.773
		c3.14,0.902,9.187,1.792,12.535,3.72c1.827,1.049,4.412,4.59,6.146,5.791c1.598,1.11,7.231,2.891,7.231,2.891
		s8.89,3.398,11.569,5.073c2.613,1.623,9.4,7.965,9.4,7.965s-3.789,0.783-5.066,0.716c-2.974-0.147-11.562-2.897-11.562-2.897
		l6.502,4.351l-2.887-1.082l5.781,9.768l4.619-0.276l-3.894-4.791c0,0,4.064,0.406,5.268,0.982c1.437,0.675,4.853,4.084,4.853,4.084
		l0.718-4.345c0,0,3.295,0.389,4.341,0.728c1.153,0.371,4.336,2.17,4.336,2.17l-3.519-6.448l4.785,1.578l2.165,2.176
		c9.167,9.557,17.857,19.762,25.959,30.508c15.471,20.514,28.785,43.008,39.109,66.78c8.763,20.172,15.367,41.263,19.311,62.843
		c0.829,4.525,1.533,9.071,2.121,13.636C800.168,524.542,800.761,540.277,799.751,556.056z M606.902,438.766
		c-0.422,0.389-2.083-0.495-2.083-0.495s-0.853,1.171-1.169,1.307c-0.393,0.157-1.65,0-1.65,0v-2.627l1.08-2.085l-1.121-3.168
		l-1.149-1.132l0.681-1.572c0,0,1.283,1.201,1.795,1.082c0.861-0.203,1.896-1.906,1.896-1.906l1.166,1.179
		c0,0,1.311,1.86,1.181,2.536c-0.041,0.22-0.528,0.625-0.528,0.625v2.808C607,435.317,607.52,438.169,606.902,438.766z
		 M617.03,447.933c0,0,1.167,0.372,1.571,0.383c0.546,0,2.128-0.475,2.128-0.475l2.363,1.394l3.938-0.648l0.649,2.987
		c0,0,0.866,1.583,0.911,2.152c0.056,0.598-0.648,1.85-1.08,2.17c-0.35,0.253-1.238,0.71-1.627,0.541
		c-0.581-0.254-1.115-1.38-1.537-1.791c-0.472-0.458-1.777-1.049-2.285-1.303c-0.894-0.423-1.782-1.573-2.509-1.973
		c-0.615-0.344-2.067,0.248-2.523-0.181C616.429,450.638,617.03,447.933,617.03,447.933z M662.02,461.021l7.331,1.894
		c0,0,0.758,0.643,1.081,0.744c0.364,0.101,1.345,0.124,1.345,0.124l-0.671,0.723l-3.483-0.119l-2.078-1.302l-3.281-0.429
		L662.02,461.021z M700.702,467.362c0,0-1.598,0.873-2.172,1.082c-0.355,0.136-1.445,0.366-1.445,0.366s-1.229,1.055-1.713,0.947
		c-0.339-0.079-0.817-1.127-0.817-1.127s-0.312-1.747-0.094-2.266c0.202-0.474,1.542-1.354,1.542-1.354s1.452,0.632,1.964,0.593
		c0.94-0.085,3.371-1.651,3.371-1.651s-1.893,1.95-1.727,2.598C699.717,466.939,700.702,467.362,700.702,467.362z M864.521,530.762
		l3.51-2.257l-0.354,15.09l-3.51,2.258L864.521,530.762z M867.604,546.515l-0.355,15.089l-3.51,2.259l0.354-15.09L867.604,546.515z
		 M861.118,535.16l1.647-3.27l1.281-0.826l-0.357,15.094l-1.279,0.823l-1.544-1.207L861.118,535.16z M860.691,553.17l1.649-3.269
		l1.279-0.823l-0.356,15.092l-1.279,0.821l-1.545-1.21L860.691,553.17z M852.639,538.406l3.512-2.259l-0.356,15.09l-3.51,2.26
		L852.639,538.406z M855.727,554.157l-0.356,15.091l-3.511,2.261l0.357-15.094L855.727,554.157z M849.27,542.777l1.654-3.266
		l1.243-0.801l-0.354,15.092l-1.248,0.799l-1.542-1.208L849.27,542.777z M848.848,560.787l1.649-3.268l1.246-0.799l-0.357,15.091
		l-1.245,0.802l-1.545-1.208L848.848,560.787z M841.032,545.9l3.508-2.256l-0.356,15.089l-3.508,2.256L841.032,545.9z
		 M844.236,561.653L844,576.707v0.038l-3.629,2.258l-0.012-2.054l0.337-13.038L844.236,561.653z M837.585,550.323l1.647-3.268
		l1.324-0.849l-0.354,15.087l-1.324,0.854l-1.544-1.208L837.585,550.323z M836.957,576.996l0.204-8.661l1.645-3.268l1.324-0.849
		l-0.301,12.744l-0.054,2.345l-1.324,0.851l-1.542-1.207L836.957,576.996z M838.925,615.326l-1.322,0.854l-1.544-1.21l0.252-10.614
		l1.647-3.27l1.324-0.849L838.925,615.326z M838.027,598.172l-1.544-1.212l0.251-10.616l1.649-3.266l1.324-0.85l-0.358,15.091
		L838.027,598.172z M842.909,612.766l-3.511,2.256l0.359-15.09l3.506-2.258L842.909,612.766z M839.825,597.014l0.356-15.091
		l1.023-0.66l2.484-1.598l-0.045,1.935l-0.31,13.156L839.825,597.014z M846.109,608.504l-1.646,3.261l-1.079,0.693l0.354-15.089
		l1.082-0.696l1.539,1.217L846.109,608.504z M846.731,582.229l-0.195,8.266l-1.647,3.262l-1.08,0.693l0.303-12.769l0.055-2.321
		l1.081-0.695l1.54,1.217L846.731,582.229z M846.962,572.482l-1.647,3.264l-1.081,0.693l0.358-15.092l1.077-0.695l1.545,1.214
		L846.962,572.482z M847.387,554.474l-1.647,3.261l-1.08,0.693l0.357-15.089l1.079-0.695l1.54,1.216L847.387,554.474z
		 M850.535,607.835l-1.243,0.799l-1.544-1.208l0.247-10.618l1.651-3.268l1.246-0.799L850.535,607.835z M849.716,590.622
		l-1.546-1.207l0.161-6.733l0.09-3.883l1.652-3.266l0.628-0.406l0.615-0.396l-0.002,0.112l-0.216,9.067l-0.139,5.912
		L849.716,590.622z M854.52,605.27l-3.511,2.26l0.357-15.094l3.51-2.258L854.52,605.27z M854.945,587.26l-3.51,2.258l0.125-5.353
		l0.225-9.548l0.005-0.19l3.51-2.259l-0.013,0.615l-0.316,13.42L854.945,587.26z M857.801,600.955l-1.647,3.266l-1.158,0.745
		l0.354-15.094l1.158-0.745l1.54,1.217L857.801,600.955z M858.225,582.946l-0.989,1.959l-0.658,1.305l-0.79,0.507l-0.37,0.238
		l0.014-0.465l0.327-13.967l0.016-0.66l1.161-0.745l0.55,0.433l0.058,0.048l0.932,0.731L858.225,582.946z M858.648,564.938
		l-1.646,3.259l-1.158,0.749l0.354-15.094l1.16-0.745l1.542,1.215L858.648,564.938z M859.075,546.926l-1.647,3.259l-1.16,0.749
		l0.356-15.089l1.158-0.747l1.545,1.217L859.075,546.926z M862.415,600.192l-1.279,0.821l-1.544-1.212l0.249-10.611l1.649-3.269
		l1.279-0.823L862.415,600.192z M861.558,583.005l-1.54-1.212l0.25-10.614l1.646-3.266l1.282-0.826l-0.357,15.092L861.558,583.005z
		 M866.398,597.629l-3.51,2.258l0.356-15.096l3.511-2.258L866.398,597.629z M863.312,581.873l0.357-15.091l3.51-2.258l-0.356,15.091
		L863.312,581.873z M869.642,593.336l-1.645,3.261l-1.125,0.728l0.355-15.096l1.126-0.724l1.54,1.217L869.642,593.336z
		 M870.068,575.326l-1.647,3.264l-1.124,0.723l0.356-15.094l1.125-0.723l1.537,1.217L870.068,575.326z M870.495,557.314
		l-1.649,3.262l-1.123,0.723l0.357-15.089l1.122-0.724l1.54,1.215L870.495,557.314z M870.919,539.306l-1.649,3.261l-1.122,0.723
		l0.359-15.09l1.122-0.722l1.542,1.214L870.919,539.306z"/>
	<path fill="#42D05F" d="M153.104,144.667c2.879,1.829,4.958,1.006,6.102,3.929c0.92,2.343,4.497,4.607,5.056,4.884
		c0.586,0.291,2.22,0.081,1.406,2.215c-0.76,1.995-1.785,5.28,2.341,8.218c3.889,2.768,4.676,6.299,6.646,6.7
		c2.356,0.479,7.225-3.981,7.92-5.833c0.921-2.456,2.929-7.403,2.269-10.82c1.133,2.044,2.082,3.316,2.441,3.153
		c0.35-0.158,0.055-1.64-0.678-3.764c2.127,2.724,7.011,4.537,9.406,5.498c1.832,0.736,8.405,0.148,9.642-1.917
		c1.034-1.726-1.037-4.691-0.454-9.432c0.618-5.033-2.494-6.491-4.476-7.274c-2.124-0.841-0.867-1.906-0.686-2.536
		c0.172-0.6,0.918-4.77-0.189-7.03c-1.382-2.818,0.776-4.4,1.369-7.759c1.845-10.458-6.436-5.125-7.839-3.824
		c-13.041,12.092-11.024,23.915-11.024,23.915c-0.019,0.369-0.019,0.724-0.006,1.066c-0.672-1.131-1.244-1.911-1.617-2.171
		c-0.25-0.642-0.532-1.277-0.606-1.964c-0.041-0.444-0.038-0.88-0.002-1.321c0.135-1.405,0.983-2.524,1.631-3.702
		c0.011-0.017,0.013-0.053-0.012-0.065c-0.026-0.016-0.062-0.009-0.071,0.018c-0.705,1.174-1.554,2.298-1.707,3.741
		c-0.104,1.163,0.155,2.256,0.701,3.252c-0.093-0.051-0.174-0.072-0.235-0.045c-0.055,0.025-0.09,0.091-0.113,0.179
		c-0.38-1.056-1.022-1.975-1.947-2.664c-1.181-0.85-2.579-0.958-3.931-1.222c-0.02-0.002-0.053,0.016-0.059,0.045
		c-0.008,0.027,0.021,0.049,0.041,0.05c1.315,0.311,2.701,0.414,3.845,1.245c0.357,0.268,0.68,0.557,0.981,0.889
		c0.468,0.505,0.744,1.123,1.049,1.724c-0.068,0.42,0.116,1.34,0.491,2.563c-0.216-0.209-0.441-0.417-0.688-0.622
		c0,0-7.355-9.467-25.065-7.986C153.127,136.159,144.151,138.974,153.104,144.667z"/>
	<polygon fill="#42D05F" points="617.607,73.278 606.17,71.803 617.435,48.226 594.155,24.724 593.853,25.254 605.826,50.719 
		588.215,69.485 581.048,68.561 588.96,89.242 	"/>
	
		<ellipse transform="matrix(0.0219 0.9998 -0.9998 0.0219 535.9809 -384.3529)" fill="#42D05F" cx="464.429" cy="81.757" rx="7.793" ry="7.779"/>
	<path fill="#42D05F" d="M488.675,103.291c-2.497-3.71-13.397-11.854-13.397-11.854l4.057,19.448l22.503,38.411l-12.425,9.55
		c0,0,6.291-2.584,14.367-6.235l7.157,12.219c0,0-1.539-5.678-3.94-13.687c10.834-4.994,23.643-11.416,28.991-16.089
		c2.697-2.352,8.07-11.825,8.07-11.825l-15.013,5.151l-23.481,18.05C500.949,131.446,494.187,111.481,488.675,103.291z"/>
	<path fill="#42D05F" d="M514.353,0c0,0-34.755,35.04-42.085,50.077c-1.963,4.02-3.555,17.544-3.555,17.544l14.79-13.242L514.353,0z
		"/>
	<path fill="#42D05F" d="M433.822,83.148c4.458-0.31,16.949-5.69,16.949-5.69l-18.845-6.208l-62.454,0.435
		C369.473,71.685,417.156,84.309,433.822,83.148z"/>
	<path fill="#42D05F" d="M631.031,182.587c2.325,1.111,5.113,0.124,6.224-2.206c1.111-2.331,0.124-5.122-2.204-6.234
		c-2.327-1.112-5.112-0.125-6.224,2.208C627.716,178.684,628.704,181.476,631.031,182.587z"/>
	<path fill="#42D05F" d="M633.168,198.004l2.377,37.449c0,0,5.935-29.032,4.675-38.99c-0.337-2.664-3.977-9.975-3.977-9.975
		L633.168,198.004z"/>
	<path fill="#42D05F" d="M681.845,148.075c0,0-28.07,9.368-36.059,15.44c-2.135,1.623-6.635,8.438-6.635,8.438l11.498-3.092
		L681.845,148.075z"/>
	<path fill="#42D05F" d="M584.889,147.28c0,0,22.139,19.663,31.384,23.55c2.469,1.041,10.613,1.538,10.613,1.538l-8.421-8.424
		L584.889,147.28z"/>
	
		<ellipse transform="matrix(-0.9933 -0.1155 0.1155 -0.9933 1087.0369 301.1342)" fill="#42D05F" cx="552.244" cy="119.069" rx="6.226" ry="6.233"/>
	<path fill="#42D05F" d="M620.574,150.212c0,0-31.22-24.158-43.867-28.496c-3.38-1.162-14.261-1.087-14.261-1.087l11.963,10.446
		L620.574,150.212z"/>
	<path fill="#42D05F" d="M550.767,108.282l3.052-15.598l-6.533-49.604c0,0-5.283,39.155-2.711,52.292
		C545.261,98.885,550.767,108.282,550.767,108.282z"/>
	<path fill="#42D05F" d="M822.009,634.64c-0.593-0.687-1.544-2.078-2.249-2.676l-0.047-0.035c-0.308-0.252-0.658-0.463-1.048-0.615
		c-2.021-0.799-4.31,0.193-5.106,2.218c-0.795,2.028,0.197,4.313,2.225,5.112c0.422,0.166,0.856,0.254,1.283,0.27l0.088,0.005
		c0.851,0.013,2.444-0.297,3.281-0.38c0.738-0.074,1.582-0.097,2.107-0.067c1.104,0.057,4.403,0.424,4.403,0.424
		s-2.65-1.916-3.458-2.646C823.082,635.885,822.484,635.188,822.009,634.64z"/>
	<path fill="#42D05F" d="M827.665,652.492c0.476,0.188,0.967,0.287,1.449,0.305l0.095,0.005c0.961,0.016,2.752-0.335,3.694-0.429
		c0.83-0.083,1.779-0.105,2.372-0.074c1.241,0.062,4.951,0.478,4.951,0.478s-2.98-2.156-3.89-2.978
		c-0.455-0.413-1.127-1.194-1.663-1.813c-0.669-0.771-1.739-2.335-2.531-3.006l-0.052-0.042c-0.346-0.285-0.741-0.521-1.181-0.691
		c-2.273-0.898-4.844,0.22-5.741,2.495C824.273,649.02,825.394,651.594,827.665,652.492z"/>
	<path fill="#42D05F" d="M851.024,692.005c-7.052-0.368-13.473-2.29-19.302-4.619c3.988-5.472,11.043-14.423,17.677-19.208
		c1.644-1.188,4.507-0.139,4.909-2.125c0.524-2.586-4.318-8.426-6.918-7.966c-1.993,0.353-1.205,3.315-2.604,4.778
		c-6.735,7.05-20.576,15.469-26.051,18.672c-8.154-3.746-14.734-6.069-19.896-1.684c-8.473,7.197-15.812,35.141-10.39,44.738
		c1.746,3.093,4.61,4.668,8.251,5.489c3.729,19.071,16.842,29.812,29.056,26.604c13.35-3.511,15.305-12.971,14.715-20.021
		c0.054,0.029,0.107,0.054,0.161,0.081C849.977,741.755,861.573,692.559,851.024,692.005z M824.056,750.396
		c-9.629,2.353-18.083-8.241-20.84-19.533c8.868,0.44,20.189-0.562,31.2,3.191C835.32,739.012,835.166,747.682,824.056,750.396z
		 M853.121,716.263c-2.781,11.967-7.759,21.034-10.594,20.374c-2.837-0.659-2.882-10.896-0.104-22.863
		c2.781-11.968,7.333-21.138,10.167-20.476C855.426,693.957,855.899,704.295,853.121,716.263z"/>
	<path fill="#42D05F" d="M761.587,955.964c-10.652,7.223-13.442,21.722-6.232,32.39c7.209,10.663,21.689,13.462,32.342,6.241
		c10.654-7.22,13.441-21.722,6.232-32.389C786.72,951.54,772.239,948.744,761.587,955.964z"/>
	<path fill="#42D05F" d="M809.312,804.257l-45.843,46.758l3.713,3.623c1.368,1.344,4.184,0.691,6.293-1.462l10.865-11.08
		c0.094,0.117,0.197,0.233,0.308,0.341c1.955,1.917,5.263,1.713,7.391-0.462l7.714-7.864c2.13-2.173,2.273-5.492,0.321-7.414
		c-0.112-0.107-0.227-0.206-0.346-0.301l11.927-12.164c1.973-2.016,2.626-4.624,1.58-6.051L809.312,804.257z"/>
	<path fill="#42D05F" d="M395.323,902.511c2.108-4.547-0.149-16.402-7.739-19.466l-22.181-8.438l-12.437,26.948l26.243,10.822
		C389.262,917.865,393.557,906.322,395.323,902.511z"/>
	<path fill="#42D05F" d="M400.007,936.242c-0.13-6.789-3.639-29.785-3.639-29.785s-5.875,7.206-7.301,8.53
		c-3.868,3.598-20.596,15.561-20.596,15.561L357.3,919.523l4.538,35.533l37.625,7.726l-11.152-12.315
		C388.311,950.467,400.062,939.129,400.007,936.242z"/>
	<path fill="#42D05F" d="M304.448,912.33l-3.762-28.172c-0.28-11.458-12.414-9.413-16.59-9.04
		c-4.988,0.448-14.111,8.331-12.965,16.446l3.791,23.455L304.448,912.33z"/>
	<path fill="#42D05F" d="M319.771,961.975c-9.77,5.975-1.935,15.473,0.478,18.907c2.879,4.104,14.26,8.073,20.704,3.021
		l18.389-15.015l-17.087-24.261L319.771,961.975z"/>
	<path fill="#42D05F" d="M309.429,943.577l15.117-4.177l-32.996-13.83l-25.495,28.767l16.227-3.515c0,0,3.932,15.861,6.452,17.257
		c5.938,3.284,27.579,11.738,27.579,11.738s-3.294-8.699-3.725-10.598C311.411,964.066,309.429,943.577,309.429,943.577z"/>
	<path fill="#42D05F" d="M204.537,887.182c0.72-2.413-0.7-6.403-0.97-6.965c-0.282-0.592-1.698-1.437,0.258-2.612
		c1.827-1.104,4.657-3.053,3.22-7.914c-1.355-4.581,0.2-7.849-1.106-9.382c-1.557-1.833-8.138-1.326-9.824-0.298
		c-2.238,1.362-6.869,4.018-8.453,7.117c0.369-2.31,0.406-3.898,0.022-3.993c-0.372-0.094-1.053,1.257-1.784,3.38
		c0.003-3.456-2.723-7.904-4.016-10.14c-0.989-1.711-6.525-5.307-8.77-4.444c-1.879,0.718-2.075,4.332-5.454,7.703
		c-3.588,3.577-2.035,6.647-0.958,8.49c1.154,1.976-0.491,2.036-1.021,2.42c-0.506,0.365-3.662,3.187-4.183,5.649
		c-0.647,3.072-3.321,2.982-5.857,5.261c-7.896,7.092,1.908,8.008,3.815,7.853c17.714-1.461,23.407-12.012,23.407-12.012
		c0.241-0.278,0.46-0.557,0.661-0.835c-0.167,1.306-0.197,2.271-0.063,2.707c-0.199,0.659-0.368,1.333-0.733,1.921
		c-0.241,0.373-0.512,0.714-0.81,1.041c-0.975,1.021-2.33,1.379-3.566,1.906c-0.019,0.004-0.041,0.033-0.03,0.058
		c0.011,0.029,0.042,0.043,0.066,0.029c1.277-0.489,2.638-0.849,3.648-1.89c0.797-0.853,1.268-1.872,1.452-2.994
		c0.041,0.099,0.093,0.166,0.157,0.182c0.059,0.016,0.126-0.016,0.197-0.069c-0.351,1.063-0.41,2.187-0.107,3.3
		c0.407,1.396,1.438,2.345,2.341,3.389c0.015,0.014,0.051,0.018,0.074,0c0.021-0.016,0.013-0.052-0.002-0.062
		c-0.844-1.06-1.87-1.998-2.261-3.355c-0.113-0.434-0.189-0.859-0.223-1.307c-0.057-0.685,0.105-1.342,0.234-2.002
		c0.313-0.287,0.735-1.124,1.192-2.323c0.043,0.297,0.094,0.602,0.161,0.916c0,0-0.044,11.994,14.808,21.769
		c1.599,1.051,10.399,4.381,6.857-5.631C205.781,890.824,203.639,890.189,204.537,887.182z"/>
	<path fill="#42D05F" d="M718.598,430.616c-0.496-1.375,1.683-5.39,1.683-5.39l-5.074-3.234c0,0-4.918,0-5.993-0.227
		c-1.717-0.383-4.385-2.772-4.385-2.772l-8.527-0.924c0,0-0.253-4.363-1.56-5.547c-0.821-0.743-4.345-0.732-4.345-0.732
		s-3.569-4.038-5.06-3.619c-1.321,0.373-1.53,3.845-2.168,5.062c-0.947,1.827-5.105,3.867-5.784,5.801
		c-0.367,1.048,1.026,3.241,0.93,4.345c-0.121,1.422-2.806,3.434-2.994,4.848c-0.168,1.24,2.064,4.554,2.064,4.554
		s4.878-0.676,6.467-0.168c1.311,0.423,5.301,3.01,5.301,3.01l4.861-3.923l7.589,2.062l9.761,5.546c0,0,6.666,2.324,8.68,1.443
		c1.795-0.776,4.91-4.638,4.341-6.516C723.876,432.601,719.172,432.224,718.598,430.616z"/>
	<path fill="#42D05F" d="M756.243,448.204c-0.366-2.176-1.139-6.613-2.218-8.536c-1.311-2.345-7.229-7.97-7.229-7.97
		s-2.033-3.698-2.173-5.061c-0.147-1.444,0.979-4.73,0-5.795c-0.731-0.8-3.743-0.405-4.637,0.338
		c-0.965,0.828-1.594,3.297-1.869,4.736c-0.242,1.24,1.784,3.738,2.166,5.061c0.457,1.568-0.456,4.949,0,6.517
		c0.868,2.947,5.768,7.407,6.621,10.36c1.043,3.596-0.586,9.333,0.69,12.468c0.461,1.118,2.027,3.394,2.817,3.958
		c1.355,0.969,4.453,4.001,4.453,4.001s5.002,0.299,5.674-1.104c1.225-2.581-2.799-8.116-3.621-10.856
		C756.333,454.37,756.586,450.209,756.243,448.204z"/>
	<path fill="#42D05F" d="M953.657,498.357c-14.407,0-26.087,11.696-26.087,26.124c0,14.427,11.68,26.12,26.087,26.12
		c14.404,0,26.085-11.693,26.085-26.12C979.742,510.053,968.062,498.357,953.657,498.357z"/>
	<polygon fill="#42D05F" points="960.292,490 954.017,479.116 947.741,490 	"/>
	<polygon fill="#42D05F" points="952.786,569.885 959.06,559 946.509,559 	"/>
	<polygon fill="#42D05F" points="918.622,530.68 918.633,518.115 907.615,524.637 	"/>
	<polygon fill="#42D05F" points="982.873,502.084 984.934,489.689 973.083,493.829 	"/>
	<polygon fill="#42D05F" points="989.016,517.559 989.002,530.127 999.877,523.855 	"/>
	<polygon fill="#42D05F" points="923.643,504.745 932.086,495.449 919.822,492.774 	"/>
	<polygon fill="#42D05F" points="974.4,555.818 986.232,560.013 983.948,547.657 	"/>
	<polygon fill="#42D05F" points="919.186,558.184 931.449,555.511 923.005,546.212 	"/>
</g>
<g>
</g>
<g>
</g>
<g>
</g>
<g>
</g>
<g>
</g>
<g>
</g>
<g>
</g>
<g>
</g>
<g>
</g>
<g>
</g>
<g>
</g>
<g>
</g>
<g>
</g>
<g>
</g>
<g>
</g>
</svg>
