<?xml version="1.0" encoding="utf-8"?>
<!-- Generator: Adobe Illustrator 16.0.4, SVG Export Plug-In . SVG Version: 6.00 Build 0)  -->
<!DOCTYPE svg PUBLIC "-//W3C//DTD SVG 1.1//EN" "http://www.w3.org/Graphics/SVG/1.1/DTD/svg11.dtd">
<svg version="1.1" id="Layer_1" xmlns="http://www.w3.org/2000/svg" xmlns:xlink="http://www.w3.org/1999/xlink" x="0px" y="0px"
	 width="1000px" height="212px" viewBox="0 0 1000 212" enable-background="new 0 0 1000 212" xml:space="preserve">
<g>
	<rect x="265" y="188" fill="#70706E" width="466" height="24"/>
	<path fill="#70706E" d="M304,158v-47h18.161h0.44l31.17,47h49.518l-36.918-54.055c9.729-4.118,17.361-10.174,23.109-17.978
		c5.747-7.798,8.52-17.756,8.52-29.675V55.85c0-15.155-4.468-27.15-13.604-35.981c-5.161-5.298-11.814-9.462-20.065-12.406
		C356.077,4.52,346.035,3,334.098,3H261v36.868c-4-6.063-7.844-11.562-12.856-16.468c-7.372-7.209-16.156-12.913-26.325-17.108
		C211.65,2.098,200.588,0,188.653,0c-11.938,0-22.996,2.098-33.165,6.292c-10.169,4.195-19.061,9.935-26.577,17.219
		c-1.71,1.658-2.911,3.389-4.911,5.176V3H0v155h43v-56h65.032c0.912,4,2.012,6.611,3.349,9.705
		c4.201,9.715,9.984,18.284,17.355,25.493c7.366,7.213,16.137,12.968,26.304,17.163c10.17,4.192,21.222,6.318,33.16,6.318
		c11.937,0,22.989-2.086,33.158-6.278c10.169-4.195,19.048-9.927,26.564-17.214c5.124-4.966,9.078-10.521,13.078-16.648V158H304z
		 M304,40h27.887c7.219,0,12.845,1.601,16.973,4.614c4.124,3.017,6.141,7.703,6.141,13.885v0.442c0,5.593-1.94,9.911-5.92,13.224
		C345.101,75.477,339.476,77,332.108,77H304V40z M43,41h72.654c-1.569,2-3.006,5.524-4.273,8.476
		C108.961,55.116,107.263,61,106.237,67H43V41z M228,80.793c0,5.596-0.969,10.895-2.888,15.895
		c-1.921,5.004-4.583,9.382-7.982,13.135c-3.398,3.752-7.538,6.733-12.416,8.94c-4.877,2.207-10.273,3.31-16.182,3.31
		c-5.915,0-11.306-1.135-16.184-3.42c-4.875-2.277-9.053-5.335-12.524-9.16c-3.474-3.826-6.097-8.241-8.018-13.245
		c-1.921-5.003-2.807-10.3-2.807-15.895v-0.441c0-5.592,0.849-10.89,2.697-15.895c1.844-5,4.466-9.382,7.941-13.134
		c3.476-3.753,7.594-6.732,12.399-8.941c4.801-2.206,10.149-3.31,16.062-3.31c5.909,0,11.3,1.141,16.177,3.421
		c4.877,2.283,9.084,5.336,12.632,9.162c3.545,3.827,6.284,8.243,8.205,13.245C227.032,69.464,228,74.763,228,80.353V80.793z"/>
	<path fill="#70706E" d="M993.99,48.676c-3.906-9.344-9.656-17.401-17.098-24.173c-7.444-6.766-16.614-12.074-27.448-15.827
		C938.611,4.923,926.23,3,912.38,3H853v36.869c-4-6.063-7.961-11.562-12.971-16.468c-7.375-7.209-16.216-12.913-26.385-17.108
		C803.475,2.098,792.383,0,780.45,0c-11.94,0-23.013,2.098-33.183,6.292c-10.168,4.195-19.019,9.935-26.534,17.219
		c-6.475,6.275-11.715,13.485-15.73,21.616c-4.016-8.194-9.239-15.436-15.667-21.727c-7.369-7.209-16.14-12.913-26.31-17.108
		C652.862,2.098,641.811,0,629.871,0c-11.937,0-22.992,2.098-33.158,6.292c-10.168,4.195-19.013,9.935-26.528,17.219
		c-7.517,7.284-13.375,15.657-17.575,25.442C550.102,54.799,548.359,61,547.35,67H490v32h30v18.438
		c-6,4.27-14.673,6.401-24.728,6.401c-6.211,0-11.813-1.067-16.911-3.202c-5.101-2.129-9.508-5.078-13.28-8.827
		c-3.772-3.754-6.8-8.28-8.869-13.577C454.14,92.935,453,87.195,453,81.015v-0.441c0-5.884,1.152-11.402,3.218-16.557
		c2.062-5.148,4.924-9.635,8.46-13.464c3.537-3.826,7.729-6.844,12.521-9.052c4.786-2.207,9.997-3.312,15.6-3.312
		c7.662,0,14.411,1.253,20.234,3.752c5.819,2.505,11.533,6.11,17.135,10.817l25.204-30.241c-8.256-7.063-17.352-12.582-27.3-16.556
		C518.125,1.987,506.299,0,492.592,0c-11.937,0-23.019,2.063-33.244,6.183c-10.228,4.12-19.008,9.822-26.338,17.106
		c-7.332,7.286-13.324,15.821-17.503,25.608C411.328,58.684,409,69.171,409,80.353v0.44c0,11.776,2.373,22.556,6.648,32.34
		c4.272,9.79,10.288,18.212,17.804,25.279c7.517,7.062,16.452,12.546,26.697,16.442c10.24,3.898,21.434,5.852,33.52,5.852
		c14.147,0,26.883-2.284,38.087-6.845c11.198-4.56,21.243-10.226,29.243-16.999v-10.196c3,3.802,5.657,7.356,9.013,10.639
		c7.369,7.213,16.114,12.915,26.284,17.11c10.168,4.192,21.206,6.291,33.143,6.291c11.94,0,22.984-2.099,33.154-6.291
		c10.168-4.195,19.01-9.934,26.521-17.221c6.479-6.275,11.713-13.482,15.726-21.614c4.018,8.193,9.234,15.437,15.665,21.725
		c7.362,7.213,16.135,12.915,26.303,17.11c10.166,4.192,21.22,6.291,33.16,6.291c11.934,0,22.988-2.099,33.156-6.291
		c10.169-4.195,19.164-9.934,26.683-17.221c5.123-4.966,9.192-10.527,13.192-16.656V158h58.495c13.853,0,26.269-2.143,37.248-6.041
		c10.976-3.9,20.229-9.402,27.743-16.321c7.52-6.916,13.414-15.174,17.396-24.664c3.977-9.491,6.117-19.876,6.117-31.062v-0.442
		C1000,68.287,997.895,58.023,993.99,48.676z M669,80.793c0,5.596-0.855,10.895-2.776,15.895c-1.921,5.004-4.522,9.382-7.923,13.135
		c-3.398,3.752-7.51,6.733-12.387,8.94c-4.878,2.207-10.26,3.31-16.168,3.31c-5.914,0-11.298-1.135-16.176-3.42
		c-4.877-2.277-9.049-5.335-12.52-9.16c-3.477-3.826-6.214-8.241-8.131-13.245c-1.921-5.003-2.92-10.3-2.92-15.895v-0.441
		c0-5.592,0.961-10.89,2.811-15.895c1.844-5,4.526-9.382,7.997-13.134c3.478-3.753,7.622-6.732,12.428-8.941
		c4.803-2.206,10.164-3.31,16.076-3.31c5.91,0,11.31,1.141,16.188,3.421c4.873,2.283,9.085,5.336,12.633,9.162
		c3.542,3.827,6.169,8.243,8.09,13.245C668.144,69.464,669,74.763,669,80.353V80.793z M820,80.793
		c0,5.596-1.084,10.895-3.006,15.895c-1.92,5.004-4.641,9.382-8.039,13.135c-3.396,3.752-7.567,6.733-12.445,8.94
		c-4.877,2.207-10.285,3.31-16.197,3.31c-5.913,0-11.312-1.135-16.188-3.42c-4.878-2.277-9.056-5.335-12.53-9.16
		c-3.47-3.826-5.98-8.241-7.9-13.245c-1.921-5.003-2.693-10.3-2.693-15.895v-0.441c0-5.592,0.734-10.89,2.58-15.895
		c1.846-5,4.407-9.382,7.885-13.134c3.475-3.753,7.564-6.732,12.37-8.941c4.799-2.206,10.132-3.31,16.044-3.31
		s11.292,1.141,16.169,3.421c4.878,2.283,9.085,5.336,12.631,9.162c3.546,3.827,6.398,8.243,8.319,13.245
		C818.92,69.464,820,74.763,820,80.353V80.793z M956,80.573c0,12.51-3.957,22.328-11.799,29.097
		c-7.837,6.771-18.225,10.33-31.093,10.33H896V41h17.108c12.868,0,23.256,3.451,31.093,10.295C952.043,58.138,956,67.77,956,80.133
		V80.573z"/>
</g>
<g>
</g>
<g>
</g>
<g>
</g>
<g>
</g>
<g>
</g>
<g>
</g>
<g>
</g>
<g>
</g>
<g>
</g>
<g>
</g>
<g>
</g>
<g>
</g>
<g>
</g>
<g>
</g>
<g>
</g>
</svg>
