<?xml version="1.0" encoding="utf-8"?>
<!-- Generator: Adobe Illustrator 16.0.4, SVG Export Plug-In . SVG Version: 6.00 Build 0)  -->
<!DOCTYPE svg PUBLIC "-//W3C//DTD SVG 1.1//EN" "http://www.w3.org/Graphics/SVG/1.1/DTD/svg11.dtd">
<svg version="1.1" id="Layer_1" xmlns="http://www.w3.org/2000/svg" xmlns:xlink="http://www.w3.org/1999/xlink" x="0px" y="0px"
	 width="40px" height="40px" viewBox="0 0 40 40" enable-background="new 0 0 40 40" xml:space="preserve">
<g>
	<path fill="none" d="M0.136,21.776c0,0.155,0,0.468,0,0.779V21.776L0.136,21.776z"/>
	<path fill="none" d="M0.136,17.561c0,0.078,0,0.078,0,0.078l0,0V17.561z"/>
	<path fill="#BF0A30" d="M37.912,28.878H2.166c0.625,1.249,1.405,2.42,2.264,3.591H35.57C36.43,31.298,37.209,30.127,37.912,28.878z
		"/>
	<path fill="#BF0A30" d="M39.863,21.776H0.136v0.779c0.195,0.781,0.312,1.562,0.468,2.342h38.752
		C39.629,23.806,39.747,22.712,39.863,21.776z"/>
	<path fill="#BF0A30" d="M8.8,36.488C11.922,38.713,15.824,40,20.039,40c4.098,0,8-1.287,11.122-3.512H8.8z"/>
	<path fill="#BF0A30" d="M19.258,10.458H37.6c-0.585-1.015-1.248-2.068-2.029-2.966H19.258V10.458z"/>
	<path fill="#BF0A30" d="M19.258,17.639h20.605c-0.234-1.054-0.39-2.107-0.702-3.122H19.258V17.639z"/>
	<path fill="#BF0A30" d="M31.161,3.434C28.039,1.249,24.137,0,20.039,0c-0.312,0-0.585,0-0.781,0v3.434H31.161z"/>
	<path fill="#FFFFFF" d="M39.356,24.897H0.604c0.391,1.326,0.898,2.731,1.561,3.98h35.747
		C38.459,27.629,38.966,26.224,39.356,24.897z"/>
	<path fill="#FFFFFF" d="M39.863,21.776c0.078-0.625,0.078-1.172,0.078-1.796c0-0.78,0-1.561-0.078-2.342H19.258v0.312H0.136v-0.312
		l0,0C0.059,18.419,0.059,19.2,0.059,19.98c0,0.624,0,1.171,0.078,1.796l0,0H39.863z"/>
	<path fill="#FFFFFF" d="M35.57,32.469H4.429c1.249,1.561,2.731,2.966,4.371,4.02h22.361C32.839,35.435,34.283,34.029,35.57,32.469z
		"/>
	<path fill="#FFFFFF" d="M19.258,14.517h19.903c-0.39-1.444-0.858-2.81-1.562-4.059H19.258V14.517z"/>
	<path fill="#FFFFFF" d="M19.258,7.493H35.57c-1.17-1.561-2.653-2.888-4.409-4.059H19.258V7.493z"/>
	<path fill="#002868" d="M0.136,17.951h19.122v-0.312v-3.122v-4.059V7.493V3.434V0C9.307,0.39,1.307,8,0.136,17.561v0.078V17.951z
		 M4.351,8H9.19l1.483-4.566L12.156,8h4.761l-3.902,2.732l1.561,4.565l-3.902-2.81l-3.903,2.81l1.483-4.565L4.351,8z"/>
	<polygon fill="#FFFFFF" points="6.771,15.297 10.673,12.488 14.576,15.297 13.015,10.732 16.917,8 12.156,8 10.673,3.434 9.19,8 
		4.351,8 8.253,10.732 	"/>
</g>
<g>
</g>
<g>
</g>
<g>
</g>
<g>
</g>
<g>
</g>
<g>
</g>
<g>
</g>
<g>
</g>
<g>
</g>
<g>
</g>
<g>
</g>
<g>
</g>
<g>
</g>
<g>
</g>
<g>
</g>
</svg>
